<?xml version="1.0" encoding="utf-8"?>
<!-- Generator: Adobe Illustrator 25.2.0, SVG Export Plug-In . SVG Version: 6.00 Build 0)  -->
<svg version="1.1" id="Art_-_flattened" xmlns="http://www.w3.org/2000/svg" xmlns:xlink="http://www.w3.org/1999/xlink" x="0px"
	 y="0px" width="740px" height="640.4px" viewBox="0 0 740 640.4" style="enable-background:new 0 0 740 640.4;"
	 xml:space="preserve">
<style type="text/css">
	.st0{fill:#DEDEDE;}
	.st1{fill:#C9C9C9;}
	.st2{fill:#FFFFFF;}
	.st3{fill:#F3F3F3;}
	.st4{fill:#EE0000;}
	.st5{clip-path:url(#SVGID_2_);fill:#FFFFFF;}
	.st6{clip-path:url(#SVGID_2_);fill:#DEDEDE;}
	.st7{fill:#BE0000;}
	.st8{fill:#68B4D2;}
	.st9{fill:#33799A;}
	.st10{fill:#F56D6D;}
	.st11{fill:#AAAAAA;}
	.st12{clip-path:url(#SVGID_4_);fill:#DEDEDE;}
	.st13{clip-path:url(#SVGID_6_);fill:#BE0000;}
	.st14{fill:#8F0000;}
	.st15{fill:#CCCCCC;}
	.st16{fill:#4CB6D6;}
	.st17{fill:#C0C0C0;}
	.st18{fill:#BC0000;}
	.st19{fill:#AFAFAF;}
	.st20{fill:#528EA6;}
	.st21{fill:#285F79;}
</style>
<g>
	
		<ellipse transform="matrix(0.7071 -0.7071 0.7071 0.7071 -106.5001 352.7198)" class="st0" cx="372.5" cy="304.9" rx="150.9" ry="150.9"/>
	<path class="st1" d="M645.6,292.1c-1.1,43.2-37,77.3-80.2,76.2c-43.2-1.1-77.3-37-76.2-80.2c1.1-43.2,37-77.3,80.2-76.2
		C612.6,213,646.7,248.9,645.6,292.1"/>
	
		<ellipse transform="matrix(0.7071 -0.7071 0.7071 0.7071 -20.4231 489.2012)" class="st2" cx="580.3" cy="269.3" rx="78.2" ry="78.2"/>
	<path class="st0" d="M658.5,271.2l-1.3,0c-0.5,20.9-9.4,39.7-23.3,53.2c-13.9,13.5-32.9,21.8-53.7,21.8c-0.7,0-1.3,0-2,0
		c-20.9-0.5-39.7-9.4-53.2-23.3c-13.5-13.9-21.8-32.9-21.8-53.7c0-0.7,0-1.3,0-2c0.5-20.9,9.4-39.7,23.3-53.2
		c13.9-13.5,32.9-21.8,53.7-21.8c0.7,0,1.3,0,2,0c20.9,0.5,39.7,9.4,53.2,23.3c13.5,13.9,21.8,32.9,21.8,53.7c0,0.7,0,1.3,0,2
		L658.5,271.2l1.2,0c0-0.7,0-1.4,0-2.1c0-21.5-8.6-41.1-22.5-55.4c-14-14.3-33.3-23.5-54.9-24c-0.7,0-1.4,0-2.1,0
		c-21.5,0-41.1,8.6-55.4,22.5c-14.3,14-23.5,33.3-24,54.9c0,0.7,0,1.4,0,2.1c0,21.5,8.6,41.1,22.5,55.4c14,14.3,33.3,23.5,54.9,24
		c0.7,0,1.4,0,2.1,0c21.5,0,41.1-8.6,55.4-22.5c14.3-14,23.5-33.3,24-54.9L658.5,271.2z"/>
	<path class="st3" d="M424.1,463.4c0-86.1,69.8-156,156-156c86.1,0,156,69.8,156,156c0,86.1-69.8,156-156,156
		C494,619.4,424.1,549.6,424.1,463.4"/>
	<polyline points="468.8,596 437.4,619.7 437.4,625.2 643.1,634.9 661.3,605.5 468.8,596 	"/>
	<polyline class="st2" points="445.3,617.5 471.8,594.1 666.8,604.2 646.4,627.8 445.3,617.5 	"/>
	<path class="st4" d="M472,594.6l193.8,10l-19.5,22.7L446.6,617L472,594.6 M471.6,593.6L444,617.9l202.6,10.5l21.2-24.7L471.6,593.6
		"/>
	<polygon class="st4" points="646.7,633.5 444,623.5 444,617.9 646.7,627.9 	"/>
	<polygon points="646.7,633.5 667.9,603.7 646.7,627.9 	"/>
	<g>
		<defs>
			<polyline id="SVGID_1_" points="446.8,617 472,594.6 665.7,604.7 646.2,627.3 446.8,617 			"/>
		</defs>
		<clipPath id="SVGID_2_">
			<use xlink:href="#SVGID_1_"  style="overflow:visible;"/>
		</clipPath>
		<line class="st5" x1="458.5" y1="618.6" x2="484.6" y2="594.7"/>
		<polyline class="st6" points="458.9,619 484.9,595.1 484.2,594.4 458.2,618.2 		"/>
		<polyline class="st5" points="473.8,619.4 499.9,595.5 473.8,619.4 		"/>
		<polyline class="st6" points="474.2,619.8 500.2,595.9 499.5,595.2 473.5,619 474.2,619.8 		"/>
		<line class="st5" x1="628.2" y1="629.6" x2="651.8" y2="603.4"/>
		<polyline class="st6" points="628.6,630 652.2,603.7 651.4,603 627.8,629.3 		"/>
		<line class="st5" x1="612.9" y1="629.6" x2="636.5" y2="603.4"/>
		<polyline class="st6" points="613.3,630 636.9,603.7 636.1,603 612.5,629.3 		"/>
		<polyline class="st5" points="582.2,626.8 605.8,600.6 582.2,626.8 		"/>
		<polyline class="st6" points="582.6,627.2 606.2,601 605.5,600.3 581.9,626.5 582.6,627.2 		"/>
		<polyline class="st5" points="566.9,624.8 590.5,598.6 566.9,624.8 		"/>
		<polyline class="st6" points="567.3,625.2 590.9,598.9 590.1,598.2 566.5,624.5 567.3,625.2 		"/>
		<polyline class="st5" points="551.6,624.8 575.2,598.6 551.6,624.8 		"/>
		<polyline class="st6" points="552,625.2 575.6,598.9 574.8,598.2 551.2,624.5 552,625.2 		"/>
		<polyline class="st5" points="536.3,624.1 559.9,597.9 536.3,624.1 		"/>
		<polyline class="st6" points="536.7,624.4 560.3,598.2 559.5,597.5 535.9,623.7 536.7,624.4 		"/>
		<polyline class="st5" points="521,622.9 544.6,596.7 521,622.9 		"/>
		<polyline class="st6" points="521.4,623.3 545,597 544.2,596.4 520.6,622.6 521.4,623.3 		"/>
		<polyline class="st5" points="505.7,622.9 529.3,596.7 505.7,622.9 		"/>
		<polyline class="st6" points="506.1,623.3 529.7,597 528.9,596.4 505.3,622.6 506.1,623.3 		"/>
		<polyline class="st5" points="489.7,621.1 514.7,596.2 489.7,621.1 		"/>
		<polyline class="st6" points="490,621.5 515,596.6 514.3,595.8 489.3,620.7 490,621.5 		"/>
		<line class="st5" x1="597.6" y1="628.4" x2="621.2" y2="602.2"/>
		<polyline class="st6" points="597.9,628.8 621.5,602.5 620.8,601.8 597.2,628.1 		"/>
		<polyline class="st6" points="451.7,612 651.2,622.5 651.2,621.5 451.7,610.9 451.7,612 		"/>
		<polyline class="st6" points="453.8,605.7 657.3,616.5 657.4,615.5 453.8,604.7 453.8,605.7 		"/>
		<polyline class="st6" points="454.5,599.7 661.9,610.7 662,609.7 454.6,598.7 454.5,599.7 		"/>
	</g>
	<path d="M431.9,564.5l262.6,13.8c1.1,0.1,2.1-0.8,2.1-1.9c0.1-1.1-0.8-2.1-1.9-2.1l-262.6-13.8c-1.1-0.1-2.1,0.8-2.1,1.9
		C429.9,563.5,430.8,564.5,431.9,564.5"/>
	
		<ellipse transform="matrix(0.3189 -0.9478 0.9478 0.3189 -305.4001 648.0671)" class="st2" cx="298.2" cy="536.5" rx="100.5" ry="100.5"/>
	<path class="st0" d="M398.6,539.1l-0.6,0c-1.4,54.2-45.8,97.3-99.7,97.3c-0.9,0-1.7,0-2.6,0c-54.2-1.4-97.3-45.8-97.3-99.7
		c0-0.9,0-1.7,0-2.6c1.4-54.2,45.8-97.3,99.7-97.3c0.9,0,1.7,0,2.6,0c54.2,1.4,97.3,45.8,97.3,99.7c0,0.9,0,1.7,0,2.6L398.6,539.1
		l0.6,0c0-0.9,0-1.8,0-2.6c0-54.6-43.6-99.6-98.5-101c-0.9,0-1.8,0-2.6,0c-54.6,0-99.6,43.6-101,98.5c0,0.9,0,1.8,0,2.6
		c0,54.6,43.6,99.6,98.5,101c0.9,0,1.8,0,2.6,0c54.6,0,99.6-43.6,101-98.5L398.6,539.1z"/>
	<path class="st0" d="M198.1,529.9c2.4-27.4,16.1-52.6,37.8-69.5c-12,15.4-19.2,33.9-20.9,53.3c-2.2,24.3,1.6,44.8,11.1,61
		c4.8,7.7,11,14.4,18.3,19.8c17.4,13.1,38,19.4,56.4,17.8c41.2-3.7,41.2-30.5,60.3-55.1c13.5-17.3,36.3-13,38.1-12.4
		c5.4-0.4-6.7,7.3-7.6,16.8c-1,11.7-5.9,24-14.4,36.7c-2.1,3.1-4.5,6-7.2,8.6c-0.1,0.1-0.2,0.2-0.2,0.3
		c-37.7,40.1-100.7,42-140.8,4.3C206.8,590.4,195.4,560.4,198.1,529.9L198.1,529.9z"/>
	<path class="st2" d="M411.9,551.8c13.3,12.1,14.3,32.6,2.3,46c-12.1,13.3-32.6,14.3-46,2.3c-13.3-12.1-14.3-32.6-2.3-46
		C378,540.7,398.5,539.7,411.9,551.8z"/>
	<path class="st0" d="M411.9,551.8l-0.5,0.6c6.9,6.3,10.4,14.9,10.4,23.5c0,7.6-2.7,15.2-8.2,21.3c-6.3,6.9-14.9,10.4-23.5,10.4
		c-7.6,0-15.2-2.7-21.3-8.2c-6.9-6.3-10.4-14.9-10.4-23.5c0-7.6,2.7-15.2,8.2-21.3c6.3-6.9,14.9-10.4,23.5-10.4
		c7.6,0,15.2,2.7,21.3,8.2L411.9,551.8l0.5-0.6c-6.4-5.8-14.4-8.6-22.4-8.6c-9.1,0-18.1,3.7-24.7,11c-5.8,6.4-8.6,14.4-8.6,22.4
		c0,9.1,3.7,18.1,11,24.7c6.4,5.8,14.4,8.6,22.4,8.6c9.1,0,18.1-3.7,24.7-11c5.8-6.4,8.6-14.4,8.6-22.4c0-9.1-3.7-18.1-11-24.7
		L411.9,551.8z"/>
	<path class="st4" d="M567.4,308.6c4.2-0.3,8.4-0.5,12.7-0.5c42.9,0,81.7,17.4,109.9,45.5c28.1,28.1,45.5,67,45.5,109.9
		c0,24-5.5,46.8-15.2,67.1l1.1,0.5c9.8-20.5,15.3-43.4,15.3-67.7c0-86.5-70.1-156.6-156.6-156.6c-4.3,0-8.6,0.2-12.8,0.5
		L567.4,308.6L567.4,308.6z"/>
	<circle class="st3" cx="191.8" cy="385.6" r="156"/>
	<path class="st4" d="M62.9,472.4c-16.8-24.8-26.5-54.7-26.5-86.9c0-42.9,17.4-81.7,45.5-109.9c28.1-28.1,67-45.5,109.9-45.5
		c3.7,0,7.3,0.1,10.9,0.4l0.1-1.2c-3.6-0.2-7.3-0.4-10.9-0.4c-86.5,0-156.6,70.1-156.6,156.6c0,32.4,9.9,62.6,26.7,87.6L62.9,472.4
		L62.9,472.4z"/>
	<circle class="st3" cx="426.5" cy="159" r="156"/>
	<path class="st4" d="M481.5,304.3c-17.1,6.5-35.6,10-55,10c-42.9,0-81.7-17.4-109.9-45.5c-28.1-28.1-45.5-67-45.5-109.9
		c0-30.1,8.5-58.1,23.3-81.9l-1.1-0.7c-14.9,24-23.5,52.3-23.5,82.5c0,86.5,70.1,156.6,156.6,156.6c19.5,0,38.2-3.6,55.4-10.1
		L481.5,304.3L481.5,304.3z"/>
	<path class="st7" d="M516.5,391.2c0,0-1.6-54.6,45.6-56.4c49.1-1.8,46.9,50.9,40.4,60.6c0,0,12.2,3,3.3,16.8
		c-8.9,13.9-11.1,13.3-11.1,13.3s-0.6,49-42.6,39.9c0,0-16.2,0.8-26-9.4c-9.8-10.3-9-38-8.1-42.9c0.8-5,1.7-8.9,0.6-13.9
		C517.4,394.2,516.6,394.5,516.5,391.2"/>
	<polygon points="546.4,393 567.2,394.4 567.8,394.5 568,394.6 575.8,400.5 566.2,398.6 567,398.8 546.1,398.3 	"/>
	<polyline points="537,397 520.8,393.9 521.9,393.8 514,395.1 520.3,390.2 520.7,389.9 521.4,390 537.8,392 537,397 	"/>
	<path d="M549.2,406c0-1.9,1.5-2.7,3.4-2.7c1.9,0,3.4,0.9,3.4,2.7c0,1.9-1.5,3.4-3.4,3.4C550.7,409.3,549.2,407.8,549.2,406z"/>
	<path d="M521.9,401.9c0-1.9,1.4-2.2,3.2-2.2c1.9,0,3.5,0.3,3.5,2.2c0,1.9-1.5,3.4-3.4,3.4C523.4,405.3,521.9,403.8,521.9,401.9"/>
	<path d="M548.5,404.3l-0.1-0.2L548.5,404.3L548.5,404.3l-0.1-0.2L548.5,404.3c0,0,1.7-0.6,4.3-0.6c2.9,0,7,0.8,11.2,4.1
		c0.2,0.2,0.6,0.1,0.7-0.1c0.2-0.2,0.1-0.6-0.1-0.7c-4.4-3.5-8.7-4.4-11.8-4.4c-2.8,0-4.6,0.7-4.6,0.7c-0.3,0.1-0.4,0.4-0.3,0.7
		C548,404.3,548.3,404.4,548.5,404.3L548.5,404.3z"/>
	<path d="M520.8,401l-0.2-0.3L520.8,401L520.8,401l-0.2-0.3L520.8,401L520.8,401c0.2-0.1,1.5-0.7,3.7-0.7c2.4,0,5.7,0.7,9.7,3.8
		c0.2,0.2,0.6,0.1,0.7-0.1c0.2-0.2,0.1-0.6-0.1-0.7c-4.2-3.1-7.8-4-10.4-4c-2.6,0-4.1,0.8-4.2,0.9c-0.3,0.1-0.3,0.5-0.2,0.7
		C520.2,401,520.6,401.1,520.8,401L520.8,401"/>
	<path d="M567.4,431.1c-7.3,0.9-13,0.4-18.5-0.1c-4.3-0.4-8.4-0.8-13-0.5c-3.5,0.2-7-0.3-9.6-0.8c-3.3-0.7-6-3-7.1-6.2
		c-0.8-2.3-1.4-5.5-1.3-9.8c0,0-1.4,23.7,3.7,35.5c6,13.7,20,15.7,20,15.7s19.5,3.3,39-16.9c1.5-1.5,2.5-3.4,2.9-5.4l10-41.3
		C593.5,401.2,580.3,429.5,567.4,431.1 M540.4,448.7c-8.2-1-13.5-6.6-12.8-12.1c0,0,2.5-5.5,13.9-4.5c11.6,1,15.7,3,16.7,7.9
		C559.3,445,548.6,449.7,540.4,448.7"/>
	<path class="st8" d="M601.6,418.4c0,0,20.9,8.6,45.7,22.1c24.9,13.5,22.4,14.7,24.5,83.3c0.6,18.1,0.1,26.8-0.2,33.6
		c-0.3,7.2-5.3,14.4-10.2,19.7c-6.5,7.1-19.8,26.3-34,32.9c-10.8-23-39-21.5-39-21.5l22-18.5c0,0-29.2-1.6-49.7-2.9
		c-18.8-1.1-27.1-1.1-37.7-1.7l12.4,11.1c-5.2,1-24.5-2.5-36.6,19.2c-30.9-17.9-42.6-38.2-44.7-41.8c-2.8-4.5,2.3-42.3,6.6-59
		c5.6-21.9,7.7-43,20.3-53.2c12.6-10.2,23.2-11.1,36.5-16.1c0,0,0.1,6.4,1.4,13.8c1.4,8.2,7,29.4,32.5,27.5c0,0,20.4,6.3,28.8-2
		c10.6-10.5,14.3-32.2,14.4-40.2C594.7,424.9,599.1,423,601.6,418.4"/>
	<path class="st9" d="M546.4,495c0,0-19.4-15.5-21.5-40.3c0,0,6.7,10.8,27.6,10.8C552.6,465.5,543.9,479.3,546.4,495z"/>
	<path class="st9" d="M580.3,465c0,0,3.6,4.6,6.8,11.9c3.4,7.7,4.2,18.1,4.2,18.1s9.6-11.9,13.8-31.6c4.2-19.7-0.5-38.7-3.2-44.4
		l-0.3-0.7c0,0-2.3,4.4-6.9,6.5C594.7,424.9,593.8,448.9,580.3,465z"/>
	<path class="st2" d="M552.2,466.1c0,0,19.1,3.5,32.2-9.6c3.6-3.6,6.8-12.2,6.8-12.2c-4.4,14.1-10.9,20.8-10.9,20.8
		c-1.7,4.5-2.4,13.6-2.6,18.5c-0.5,17.2,2.6,22.5,3.4,39c0.8,15.7-0.8,45.8-0.8,45.8c2.1,0-10.6-0.4-25.8-1.5c0,0,2.7-24.9,2.1-41.3
		C555.9,509.1,549,474.3,552.2,466.1z"/>
	<path d="M539.9,398.5c0,0,0,0.1-0.1,0.3c-0.2,0.7-0.7,2.4-1.4,4.4c-0.7,2-1.5,4.1-2.2,5.7c-1,2.2-2.7,4.7-4.1,7.2
		c-0.7,1.3-1.4,2.5-1.8,3.7c-0.5,1.2-0.8,2.4-0.8,3.5c0,0.7,0.1,1.4,0.4,2.1c0.3,0.6,0.8,1.2,1.4,1.7c1,0.7,1.8,1.2,2.6,1.5
		c0.8,0.3,1.6,0.4,2.4,0.4c1.2,0,2.3-0.3,3.5-0.5c1.2-0.3,2.4-0.5,4-0.5c0.2,0,0.3,0,0.5,0c0.3,0,0.5-0.2,0.5-0.5
		c0-0.3-0.2-0.5-0.5-0.5c-0.2,0-0.3,0-0.5,0c-1.6,0-3,0.3-4.2,0.5c-1.2,0.3-2.2,0.5-3.2,0.5c-0.6,0-1.3-0.1-2-0.4
		c-0.7-0.3-1.5-0.7-2.4-1.4c-0.5-0.4-0.9-0.9-1.1-1.3c-0.2-0.5-0.3-1-0.3-1.6c0-0.9,0.3-2,0.7-3.2c0.7-1.7,1.8-3.6,2.9-5.5
		c1.1-1.9,2.3-3.7,3.1-5.4c0.9-1.8,1.8-4.4,2.5-6.6c0.7-2.2,1.2-3.9,1.2-3.9c0.1-0.3-0.1-0.6-0.4-0.6
		C540.3,398.1,540,398.2,539.9,398.5"/>
	<path d="M547.4,427.8l-0.1-0.3L547.4,427.8L547.4,427.8l-0.1-0.3L547.4,427.8L547.4,427.8c0,0,0.1,0,0.3,0c0.3,0,0.8,0.1,1.6,0.3
		c0.3,0.1,0.6-0.1,0.6-0.4c0.1-0.3-0.1-0.6-0.4-0.6c-0.9-0.2-1.5-0.3-1.9-0.3c-0.5,0-0.7,0.1-0.8,0.1c-0.3,0.1-0.4,0.5-0.2,0.7
		C546.8,427.8,547.1,427.9,547.4,427.8L547.4,427.8z"/>
	<polygon class="st2" points="545.3,275.2 315.2,274.2 315.9,45.2 546,46.2 	"/>
	<polygon class="st4" points="545.3,275.2 545.3,274.7 315.7,273.7 316.4,45.8 545.4,46.7 544.8,275.2 545.3,275.2 545.3,274.7 
		545.3,275.2 545.8,275.2 546.5,45.7 315.3,44.7 314.7,274.7 545.8,275.7 545.8,275.2 	"/>
	<polygon points="540,275.7 539.9,282.7 308.3,281.7 308.9,49.4 315.5,49.4 314.9,274.7 	"/>
	<polygon class="st4" points="545.8,84.3 315.8,83.3 315.9,45.2 545.9,46.2 	"/>
	<path class="st2" d="M326.4,64.2l94.7,0.4c0.3,0,0.5-0.2,0.5-0.5c0-0.3-0.2-0.5-0.5-0.5l-94.7-0.4c-0.3,0-0.5,0.2-0.5,0.5
		C325.9,63.9,326.1,64.2,326.4,64.2"/>
	<path class="st2" d="M523.1,64.2c0-3,2.5-5.4,5.4-5.4c3,0,5.4,2.5,5.4,5.4c0,3-2.5,5.4-5.4,5.4C525.5,69.7,523.1,67.2,523.1,64.2z"
		/>
	<path class="st2" d="M505.5,64.2c0-3,2.5-5.4,5.4-5.4c3,0,5.4,2.5,5.4,5.4c0,3-2.5,5.4-5.4,5.4C507.9,69.6,505.5,67.2,505.5,64.2z"
		/>
	<path class="st10" d="M261.4,330.6c0,0-0.9,1.6-0.9,3.5l-0.4,5.5c-0.1,2.4-0.5,3.7-2.6,4.8c0,0,1,5.1-3.3,6.8s2.3,9.6-6.3,11.5
		c-8.6,1.8-22.6-0.7-27.2-5.3c-3.7-3.7-10.6-18.8-10.6-21.6c0,0,13.8-19.6,17.8-30.4s18.5-35.4,32-41.3c0,0,9.4,12.7,9.2,33.8
		c0,0,0.3,3.1-1.3,5.9c-1.6,2.9-1.3,4.3-1.9,6.5c-0.7,2.2-1.7,1.4-2,4.2c0,0,2.3,8.5,2.6,11.3c0.2,1.5-0.7,3-2,3.8
		C263.2,330.3,261.4,330.6,261.4,330.6z"/>
	<path class="st11" d="M227.8,430.5c0-6.6,9.9-14.6,9.3-25.2c0,0,7.6-2.7,9.6-3.7c8.4-4.2,9.4-10.9,2.6-15.9
		c-6.8-5-10.4-9.3-10.4-9.3s0.7-0.8,2.2-3.9c1.5-3,6.7-10,6.7-10s-7,0.8-15.1-0.4c-7.5-1.2-14-6-17.4-12.8
		c-2.7-5.3-5.7-11.8-6.1-15.3c0,0,13.3-14.8,21.4-34.9c7.9-19.5,21.2-34.1,31.8-36.7c0.4-0.1,0.5-0.6,0.2-0.8
		c-1.1-0.9-3.2-2.7-6.4-5.6c-4.8-4.4-20.9-9-25.7-10.3c-19.7-5-34.9,3.8-43.6,13.4c-5.2,5.7-7.3,13.2-8.7,13.9
		c-3.8,2.1-9.8,6.9-10.2,23.8c-0.3,15.5-10,11.1-4.3,27.1c1.3,3.5,1,12.2,1,12.2c0,2.8-7.1,4-7.1,4c-13.1,11.9-33.4,10.8-38.1,13.2
		c-4.7,2.4-4.7,2.4-6,3.8c-2.8,3.4-1.7,5.2-1.7,5.2l15-4.2c10.1-2.8,20.8,2.1,25,11.7c0.9,1.9,1.7,4.1,2.4,6.6
		c6.6,22.2,9.3,39.5,21.1,49.6c0,0-2.5,11,5.3,20.1c6.9,8,2.9,11.6,7,12.7c4.1,1.1,7.5-0.4,13.2,6.6c5.7,7,13.7,5.7,14.2,3
		c0.6-2.6-1.2-14.4,1.8-18.9C220.1,444.9,227.8,437.1,227.8,430.5"/>
	<g>
		<defs>
			<path id="SVGID_3_" d="M227.8,430.5c0-6.6,12.3-14.5,11.6-25c0,0,5.3-2.9,7.3-3.9c8.4-4.2,9.4-10.9,2.6-15.9
				c-6.8-5-10.4-9.3-10.4-9.3s0.7-0.8,2.2-3.9c1.5-3,6.7-10,6.7-10s-7,0.8-15.1-0.4c-7.5-1.2-14-6-17.4-12.8
				c-2.7-5.3-5.7-11.8-6.1-15.3c0,0,13.3-14.8,21.4-34.9c7.9-19.5,21.2-34.1,31.8-36.7c0.4-0.1,0.5-0.6,0.2-0.8
				c-1.1-0.9-3.2-2.7-6.4-5.6c-4.8-4.4-20.9-9-25.7-10.3c-19.7-5-34.9,3.8-43.6,13.4c-5.2,5.7-7.3,13.2-8.7,13.9
				c-3.8,2.1-9.8,6.9-10.2,23.8c-0.3,15.5-10,11.1-4.3,27.1c1.3,3.5,1,12.2,1,12.2c0,2.8-7.1,4-7.1,4
				c-13.1,11.9-33.4,10.8-38.1,13.2c-4.7,2.4-4.7,2.4-6,3.8c-2.8,3.4-1.7,5.2-1.7,5.2l15-4.2c10.1-2.8,20.8,2.1,25,11.7
				c0.9,1.9,1.7,4.1,2.4,6.6c6.6,22.2,9.3,39.5,21.1,49.6c0,0-2.5,11,5.3,20.1c6.9,8,2.9,11.6,7,12.7c4.1,1.1,7.5-0.4,13.2,6.6
				c5.7,7,13.7,5.7,14.2,3c0.6-2.6-1.2-14.4,1.8-18.9C220.1,444.9,227.8,437.1,227.8,430.5"/>
		</defs>
		<clipPath id="SVGID_4_">
			<use xlink:href="#SVGID_3_"  style="overflow:visible;"/>
		</clipPath>
		<path class="st12" d="M236.5,437.5c0-6.6,9.9-14.6,9.3-25.2c0,0,7.6-2.7,9.6-3.7c8.4-4.2,9.4-10.9,2.6-15.9
			c-6.8-5-10.4-9.3-10.4-9.3s0.7-0.8,2.2-3.9c1.5-3,6.7-10,6.7-10s1.2-7.5-6.8-8.7c-7.5-1.2-22.2,2.3-25.6-4.5
			c-2.7-5.3-5.7-11.8-6.1-15.3c0,0,13.3-14.8,21.4-34.9c7.9-19.5,21.2-34.1,31.8-36.7c0.4-0.1,0.5-0.6,0.2-0.8
			c-1.1-0.9-3.2-2.7-6.4-5.6c-4.8-4.4-20.9-9-25.7-10.3c-19.7-5-34.9,3.8-43.6,13.4c-5.2,5.7-7.3,13.2-8.7,13.9
			c-3.8,2.1-9.8,6.9-10.2,23.8c-0.3,15.5-10,11.1-4.3,27.1c1.3,3.5,1,12.2,1,12.2c0,2.8-7.1,4-7.1,4c-13.1,11.9-33.4,10.8-38.1,13.2
			c-4.7,2.4-4.7,2.4-6,3.8c-2.8,3.4-1.7,5.2-1.7,5.2l15-4.2c10.1-2.8,20.8,2.1,25,11.7c0.9,1.9,1.7,4.1,2.4,6.6
			c6.6,22.2,9.3,39.5,21.1,49.6c0,0-2.5,11,5.3,20.1c6.9,8,2.9,11.6,7,12.7c4.1,1.1,7.5-0.4,13.2,6.6c5.7,7,13.7,5.7,14.2,3
			c0.6-2.6-1.2-14.4,1.8-18.9C228.8,451.9,236.5,444.1,236.5,437.5"/>
	</g>
	<path class="st11" d="M186.5,354.2c-7.2,1.4-14.3-5.3-18.3-2.4c-4,2.9-3.7,9.5,0.9,16.5c-1.6,0-10-10.9-10.9-21.6
		c-0.7-7.6,10.9-4.3,10.9-4.3S177.3,351.1,186.5,354.2z"/>
	<path class="st11" d="M227.5,401.7c-8.2,10.3-29-5.2-36.5-15.2c-9-12-20.5-14.5-26.1-23c-7.1-10.8-7.5-23-7.5-23l-16.2,17.3
		c0,0,9.8-4.1,18,8.5c8.1,12.5,16.5,10.2,29.6,23.7C200.3,402,215,418.4,227.5,401.7z"/>
	<path class="st11" d="M173.6,376.3c-1.7-5.1-4.8-9.7-8.9-13.1c-1.7-1.4-3.5-2.6-5-4.2c-1.2-1.3-2.2-2.9-3.5-4
		c-2.1-1.9-5-2.7-7.8-3.3c-2.3-0.4-4.7-0.7-6.8,0.3c-1,0.5-1.8,1.2-2.6,2c-1.1,1.1-2.1,2.6-1.7,4.1c0.2,0.7,0.6,1.4,1.1,2
		c4.6,5.4,12,8.1,15.7,14.1c2.6,4.2,3,9.6,6.4,13.2c0.5,0.5,1.4,1,1.9,0.5c0.2-0.3,2.4,1.1,2.4,0.8c-0.4-2.8-2.2-9,0.7-11
		c2.9-2,7.3,0.8,9.2,1.6L173.6,376.3z"/>
	<path class="st4" d="M112,362.2c0,0-4.6,0.5-10,10.7c-5.4,10.2-29.5,80.8-23.9,127.6c0,0-1.9,16.3,31.3,15.4l67.7,0.9
		c0,0-4.6-16.8,2.2-26.7l16.8,3.6l31.4-4.6l32.9,17.7c0,0,5.2-81.2-2.8-103l-4.3-9.1c0,0-0.3,6.9-13.8,9.3c0,0,1.2,4.8-0.9,9.7
		c-1.5,3.3-6.2,6.7-7.4,8.4c-6.2,9.3,1.1,11.8-14.1,27.5c-4.2,4.3,0.7,15.6-1.8,18.9c-3.5,4.7-11.9-0.7-14.2-3
		c0,0-14.6-13.7-17.9-16.2c-9.7-7.4-7.6-23.4-7.6-23.4c-10.6-3.7-18.5-37-21.1-49.4C148.8,349.7,123.7,356.7,112,362.2z"/>
	<rect x="101.9" y="480.5" class="st4" width="152.5" height="39.2"/>
	<path d="M143.2,420.1c4.2,6.9-4.7,38.6,2.1,50.4c7.3,12.7,18.7,17.2,29.6,18c0,0-26-4.5-52-8.3
		C132.4,474.1,142.4,418.7,143.2,420.1z"/>
	<path d="M264.2,297c0.4,0.1,0.9,0.1,1.3,0.2c0.4,0.1,0.8,0.2,1.2,0.3c0.8,0.2,1.7,0.4,2.5,0.6c0.6,0.2,0.9,0.8,0.8,1.4
		c-0.1,0.5-0.6,0.8-1.1,0.8l0,0c-0.8,0-1.6,0-2.4,0.1c-0.4,0-0.8,0.1-1.2,0.1c-0.4,0-0.8,0.1-1.2,0.1c-1,0.1-1.9-0.6-2-1.6
		c-0.1-1,0.6-1.9,1.6-2C263.8,297,264,297,264.2,297L264.2,297z"/>
	<path d="M255,300l-5.1-2.3c-0.8-0.4-1.7-0.7-2.5-1.1c-0.8-0.3-1.6-0.6-2.4-0.8c-0.4-0.1-0.8-0.2-1.3-0.2c-0.4-0.1-0.9-0.1-1.3-0.2
		c-0.8-0.1-1.7,0-2.5,0.1c-1.7,0.3-3.5,0.8-5.2,1.4l0,0c-0.4,0.1-0.8-0.1-0.9-0.4c-0.1-0.3,0-0.7,0.4-0.9c1.7-0.9,3.5-1.6,5.4-2.1
		c0.9-0.3,1.9-0.5,3-0.5c0.6,0,1,0,1.5,0c0.5,0,1,0,1.5,0.1c1,0.1,2,0.3,3,0.6c0.9,0.2,1.8,0.5,2.8,0.8l5.4,1.6
		c1.1,0.3,1.8,1.5,1.4,2.7c-0.3,1.1-1.5,1.8-2.7,1.4C255.2,300,255.1,300,255,300L255,300z"/>
	<path d="M252.9,303.7c-0.1-0.1-0.6-0.6-1.9-1.1c-1.3-0.5-3.4-1-6.7-1c-0.6,0-1.3,0-2,0.1c-1.9,0.1-3.3,0.1-4.4,0.1
		c-1.1,0-1.8,0-2.3-0.1c-0.2,0-0.4,0-0.5,0c0,0-0.1,0-0.1,0l0,0l0,0l0,0.2l0-0.2l0,0l0,0.2l0-0.2c-0.3-0.1-0.6,0.1-0.6,0.4
		c-0.1,0.3,0.1,0.6,0.4,0.6c0,0,0.8,0.2,3,0.2c1.1,0,2.5,0,4.4-0.1c0.7,0,1.4-0.1,2-0.1c3.2,0,5.1,0.5,6.3,1c0.6,0.2,1,0.5,1.2,0.6
		c0.1,0.1,0.2,0.1,0.2,0.2l0,0l0,0l0,0l0,0l0,0l0,0c0.2,0.2,0.5,0.2,0.7,0.1C253.1,304.3,253.1,303.9,252.9,303.7L252.9,303.7z"/>
	<path class="st7" d="M260.9,330.7c0,0.1-0.9,1.3-0.9,3.4c0,0.3,0.2,0.5,0.5,0.5c0.3,0,0.5-0.2,0.5-0.5c0-0.9,0.2-1.6,0.4-2.1
		c0.1-0.2,0.2-0.4,0.2-0.6c0-0.1,0.1-0.1,0.1-0.1l0,0l0,0l-0.1-0.1l0.1,0.1l0,0l-0.1-0.1l0.1,0.1c0.2-0.2,0.1-0.6-0.2-0.7
		C261.4,330.4,261.1,330.5,260.9,330.7L260.9,330.7z"/>
	<path class="st4" d="M239.1,339.3c-0.2-0.3,0.1-0.8,0.5-0.6c0.9,0.3,4.2,1.4,7.3,0.5c5.6-1.4,10.6-2.3,13.6-0.4c0,0,0.2,4.2-3,5.5
		c0,0,0.9,5.5-3.3,6.8c0,0-3.9-0.6-8.4-6.6C243.1,340.8,239.9,340.4,239.1,339.3z"/>
	<path class="st7" d="M264.2,272.5c0,0-1.2-1-3.4-1.6c-5-1.3-9.3,1.8-13,5.4c-3.3,3.2-7,9.2-8.8,11.5c-2.8,3.7-10,21.4-11.4,25.1
		c-3.2,8.2-10.3,15.8-7.9,28.1c2.4,12.2,7.7,20,10.4,20.7c0,0-7.3-2.7-11.6-7.7c-4.2-4.9-8.9-17.4-9.1-19.9c0,0,15-20.3,17.1-25.2
		c2.1-4.9,7.2-15.9,9.4-19.6c2.3-3.7,12.5-20.1,19.3-23.5c3.4-1.7,2.9-2.4,4.5-1.2C261.1,265.6,263.4,270.3,264.2,272.5z"/>
	<path class="st2" d="M228.4,430.5c0-0.7,0.2-1.5,0.5-2.3c0.5-1.4,1.5-2.9,2.6-4.5c1.7-2.4,3.8-5,5.6-7.9c1.7-2.9,3-6,3-9.5
		c0-0.3,0-0.5,0-0.8l-0.5,0l0.3,0.5c0,0,0.3-0.2,0.9-0.5c0.8-0.4,2-1.1,3.2-1.7c1.2-0.7,2.4-1.3,3.2-1.7c2.4-1.2,4.2-2.6,5.5-4.1
		c1.2-1.5,1.9-3.2,1.9-5c0-1.4-0.4-2.7-1.2-4c-0.8-1.3-2-2.5-3.5-3.7c-3.4-2.5-5.9-4.8-7.7-6.4c-0.9-0.8-1.5-1.5-2-2
		c-0.2-0.2-0.4-0.4-0.5-0.5c-0.1-0.1-0.1-0.1-0.1-0.1l0,0l0,0l-0.4,0.3l0.4,0.3c0,0,0.7-0.9,2.3-4c0.1-0.3,0-0.6-0.2-0.7
		c-0.3-0.1-0.6,0-0.7,0.2c-0.8,1.5-1.3,2.5-1.7,3c-0.2,0.3-0.3,0.5-0.4,0.6c0,0.1-0.1,0.1-0.1,0.1l0,0l0,0l0.2,0.1l-0.2-0.2l0,0
		l0.2,0.1l-0.2-0.2c-0.2,0.2-0.2,0.5,0,0.7c0,0,3.6,4.3,10.5,9.3c1.5,1.1,2.5,2.2,3.2,3.4c0.7,1.2,1,2.3,1,3.5
		c0,1.5-0.5,2.9-1.7,4.3c-1.1,1.4-2.8,2.7-5.1,3.9c-1,0.5-2.8,1.5-4.4,2.3c-1.6,0.8-2.9,1.6-2.9,1.6c-0.2,0.1-0.3,0.3-0.3,0.5
		c0,0.2,0,0.5,0,0.7c0,2.4-0.7,4.7-1.8,6.9c-1.6,3.3-4,6.3-6.1,9.2c-1,1.4-2,2.8-2.7,4.1c-0.7,1.3-1.1,2.7-1.1,4
		c0,0.3,0.2,0.5,0.5,0.5C228.1,431,228.4,430.8,228.4,430.5L228.4,430.5z"/>
	<path class="st2" d="M217.5,449.7c0.7-1,1.7-2.3,2.9-3.8c1.7-2.2,3.7-4.7,5.3-7.4c1.6-2.6,2.7-5.4,2.7-8c0-0.3-0.2-0.5-0.5-0.5
		c-0.3,0-0.5,0.2-0.5,0.5c0,1.6-0.5,3.2-1.2,4.9c-1.1,2.6-3,5.2-4.8,7.6c-1.8,2.4-3.6,4.5-4.7,6.1c-0.2,0.2-0.1,0.6,0.1,0.7
		C217,450,217.3,450,217.5,449.7L217.5,449.7z"/>
	<path d="M258.9,264c8.6,8.7,11.3,34.5,8,40c-2.1,3.4-3.2,7.4-3,10.4c0.1,1.8,1.1,3.9,1.1,3.9c9.1-11.9,6.3-32.3,5.6-38.1
		c-0.8-6.8-5.6-17.8-7.6-18.4c-0.8-0.2-3.5,1.2-3.5,1.2"/>
	<path d="M262.4,307.6l-0.1-0.3L262.4,307.6L262.4,307.6l-0.1-0.3L262.4,307.6L262.4,307.6c0,0,0.3-0.1,0.7-0.1
		c0.7,0,1.9,0.1,3.7,0.8c0.3,0.1,0.6,0,0.7-0.3c0.1-0.3,0-0.6-0.3-0.7c-1.9-0.7-3.2-0.9-4.1-0.9c-0.6,0-0.9,0.1-0.9,0.1
		c-0.3,0.1-0.4,0.4-0.4,0.6C261.8,307.5,262.1,307.6,262.4,307.6L262.4,307.6z"/>
	<path d="M265.4,307.3c0,0,0.5,6.6-1.6,7.2c0,0-1.9-7.1-1.6-7.5C262.2,307,264.7,306.9,265.4,307.3z"/>
	<path class="st1" d="M209.7,333.7l-0.2,0.2L209.7,333.7L209.7,333.7l-0.2,0.2L209.7,333.7L209.7,333.7c-0.2-0.3-2-2.9-2-9.4
		c0-4.8,1-11.7,4.3-21.4c5.4-15.8,6.3-25.3,6.3-30c0-2.5-0.3-3.7-0.3-3.7c-0.1-0.3-0.3-0.5-0.6-0.4c-0.3,0.1-0.5,0.3-0.4,0.6l0.1,0
		l-0.1,0l0,0l0.1,0l-0.1,0c0,0,0.3,1.1,0.3,3.5c0,4.6-0.9,14-6.3,29.7c-3.3,9.8-4.3,16.8-4.3,21.7c0,7.3,2.2,10,2.3,10.1
		c0.2,0.2,0.5,0.2,0.7,0.1C209.9,334.3,209.9,334,209.7,333.7L209.7,333.7z"/>
	<path class="st1" d="M208.2,317.7c0,0,0.7-7,0.7-18c0-2,0-4.1-0.1-6.3c0-0.3-0.2-0.5-0.5-0.5c-0.3,0-0.5,0.2-0.5,0.5
		c0.1,2.2,0.1,4.3,0.1,6.2c0,5.4-0.2,9.9-0.3,13c-0.1,1.6-0.2,2.8-0.2,3.6c0,0.4-0.1,0.7-0.1,0.9c0,0.1,0,0.2,0,0.2
		c0,0.1,0,0.1,0,0.1c0,0.3,0.2,0.5,0.5,0.6C207.9,318.2,208.2,318,208.2,317.7L208.2,317.7z"/>
	<path class="st0" d="M190.2,255.3c0,0-3.3,2.7-6.6,7.6c-3.3,4.9-6.6,12.1-6.6,21c0,4.2,0.7,8.8,2.5,13.7c0.1,0.3,0.4,0.4,0.7,0.3
		c0.3-0.1,0.4-0.4,0.3-0.7c-1.7-4.8-2.5-9.3-2.5-13.4c0-8.7,3.2-15.7,6.4-20.5c1.6-2.4,3.2-4.2,4.4-5.5c0.6-0.6,1.1-1.1,1.5-1.4
		c0.2-0.2,0.3-0.3,0.4-0.4c0,0,0.1-0.1,0.1-0.1l0,0l0,0c0.2-0.2,0.3-0.5,0.1-0.7C190.8,255.1,190.5,255.1,190.2,255.3L190.2,255.3z"
		/>
	<path class="st0" d="M167.7,296.9c0,0,0.5,4.4,1.8,10c1.3,5.6,3.3,12.6,6.3,17.7c0.1,0.2,0.5,0.3,0.7,0.2c0.2-0.1,0.3-0.5,0.2-0.7
		c-3-4.9-5-11.8-6.2-17.4c-0.6-2.8-1.1-5.3-1.3-7.1c-0.1-0.9-0.2-1.6-0.3-2.1c0-0.2-0.1-0.4-0.1-0.6c0-0.1,0-0.2,0-0.2
		c0-0.3-0.3-0.5-0.6-0.5C167.9,296.4,167.6,296.6,167.7,296.9L167.7,296.9z"/>
	<path class="st0" d="M186.7,353.7c-8.6-3.5-13.9-8-17.1-11.6c-1.6-1.8-2.6-3.4-3.3-4.5c-0.3-0.6-0.5-1-0.7-1.3
		c-0.1-0.2-0.1-0.3-0.2-0.3c0,0,0-0.1,0-0.1l0,0l0,0l-0.1,0l0.1,0l0,0l-0.1,0l0.1,0l-0.5,0.2l0.5,0c0,0,0-0.6,0-1.5
		c0-1.3,0-3.4-0.2-5.4c-0.1-1-0.2-2-0.3-3c-0.1-0.9-0.3-1.8-0.6-2.5c-1.3-3.6-1.8-6.1-1.8-8c0-1.6,0.3-2.8,0.9-3.9
		c0.4-0.8,0.9-1.6,1.5-2.4c0.8-1.3,1.7-2.7,2.5-4.6c0.7-2,1.2-4.5,1.3-7.9c0.2-8.4,1.7-13.7,3.7-17.2c2-3.5,4.3-5.1,6.2-6.1
		c0.3-0.1,0.3-0.5,0.2-0.7c-0.1-0.3-0.5-0.3-0.7-0.2c-1.9,1-4.5,2.9-6.6,6.5c-2.1,3.7-3.7,9.2-3.8,17.7c-0.1,3-0.5,5.2-1,6.9
		c-0.8,2.6-2.1,4.2-3.1,5.9c-0.5,0.8-1,1.7-1.4,2.7c-0.4,1-0.6,2.1-0.6,3.4c0,2.1,0.5,4.7,1.8,8.4c0.2,0.6,0.4,1.4,0.5,2.3
		c0.4,2.7,0.5,6.3,0.5,8.2c0,0.4,0,0.8,0,1.1c0,0.1,0,0.2,0,0.3s0,0.1,0,0.1l0,0.1l0,0.1c0,0,1.1,2.9,4.4,6.6
		c3.3,3.7,8.7,8.3,17.5,11.9c0.3,0.1,0.6,0,0.7-0.3C187.1,354.2,187,353.8,186.7,353.7L186.7,353.7z"/>
	<path class="st2" d="M229,378.1c3.1-0.2,6.2-1.4,8.6-2.7c2.4-1.2,4-2.4,4-2.4c0.2-0.2,0.3-0.5,0.1-0.7c-0.2-0.2-0.5-0.3-0.7-0.1
		l0,0c-0.2,0.1-1.8,1.3-4,2.4c-2.3,1.2-5.2,2.3-7.9,2.4c-0.3,0-0.5,0.3-0.5,0.5C228.5,377.9,228.7,378.1,229,378.1L229,378.1z"/>
	<path class="st0" d="M227,401.4c-0.7,1.2-1.6,2-2.7,2.5c-1.1,0.5-2.3,0.8-3.7,0.8c-2.3,0-4.9-0.7-7.6-1.8
		c-4.1-1.7-8.5-4.5-12.3-7.5c-3.9-3-7.2-6.4-9.3-9.2c-4.5-6.1-9.7-9.7-14.4-12.9c-2.4-1.6-4.6-3.1-6.6-4.7c-2-1.6-3.7-3.3-5.1-5.4
		c-3.5-5.3-5.4-11-6.4-15.4c-0.5-2.2-0.8-4-0.9-5.3c-0.1-0.6-0.1-1.2-0.1-1.5c0-0.2,0-0.3,0-0.4c0,0,0-0.1,0-0.1l0,0
		c0-0.2-0.1-0.4-0.3-0.5c-0.2-0.1-0.4,0-0.6,0.1l0,0c-0.3,0.3-6.2,5.2-16,8.4c-2.2,0.7-5.1,1.2-8.3,1.6c-4.7,0.7-9.9,1.3-14,2.9
		c-2,0.8-3.8,1.9-5.1,3.4c-1.3,1.5-2,3.4-2,5.7l0,0c0,0.2,0.1,0.3,0.2,0.4c0.1,0.1,0.3,0.1,0.5,0.1l15-4.2c1.8-0.5,3.7-0.8,5.6-0.8
		c8,0,15.5,4.6,18.8,12.1c0.8,1.9,1.6,4.1,2.4,6.5c3.3,11.1,5.6,21,8.6,29.4c1.5,4.2,3.2,8,5.2,11.5c2,3.4,4.5,6.4,7.5,9l0.3-0.4
		l-0.5-0.1c0,0-0.4,1.7-0.4,4.4c0,2.1,0.2,4.7,1.1,7.5c0.8,2.8,2.3,5.8,4.7,8.6c3.5,4.1,7.1,7.2,10.6,10.1c3.5,2.9,6.8,5.7,9.6,9.2
		c1.6,2,3.4,3.3,5.1,4.2c1.8,0.8,3.5,1.2,5,1.2c1.3,0,2.4-0.2,3.3-0.7c0.4-0.2,0.8-0.5,1.1-0.8c0.3-0.3,0.5-0.7,0.6-1.1
		c0.1-0.3,0.1-0.6,0.1-0.9c0-0.4,0-0.8,0-1.2c0-1.7-0.1-4-0.1-6.4c0-2,0.1-4,0.3-5.8c0.2-1.8,0.7-3.4,1.4-4.3
		c0.2-0.2,0.1-0.6-0.1-0.7c-0.2-0.2-0.6-0.1-0.7,0.1c-0.8,1.2-1.3,2.9-1.5,4.8c-0.3,1.9-0.3,4-0.3,6c0,2.5,0.1,4.8,0.1,6.4
		c0,0.4,0,0.8,0,1.2c0,0.3,0,0.6-0.1,0.8c0,0.2-0.1,0.4-0.3,0.6c-0.3,0.3-0.8,0.6-1.4,0.8c-0.6,0.2-1.4,0.3-2.2,0.3
		c-1.4,0-3-0.3-4.6-1.1c-1.6-0.8-3.3-2-4.8-3.9c-2.9-3.6-6.2-6.4-9.7-9.4c-3.5-2.9-7.1-6-10.5-10c-2.3-2.7-3.7-5.6-4.5-8.3
		c-0.8-2.7-1-5.2-1-7.2c0-1.3,0.1-2.3,0.2-3c0-0.4,0.1-0.6,0.1-0.8c0-0.1,0-0.2,0-0.2l0-0.1l0,0l0,0c0-0.2,0-0.4-0.2-0.5
		c-2.9-2.5-5.3-5.4-7.3-8.7c-3-5-5.2-11-7.2-17.8c-2.1-6.8-4-14.5-6.5-22.8c-0.7-2.5-1.6-4.7-2.4-6.6c-3.5-8-11.4-12.8-19.8-12.8
		c-1.9,0-3.9,0.3-5.8,0.8l-15,4.2l0.1,0.5l0.5,0l0,0c0-1.4,0.3-2.6,0.8-3.6c0.5-0.9,1.1-1.7,1.9-2.3c1.4-1.2,3.3-2.1,5.4-2.8
		c3.2-1,7-1.6,10.7-2.1c3.7-0.5,7.2-1,9.9-1.8c10.3-3.4,16.4-8.6,16.4-8.7l-0.3-0.4l-0.5,0c0,0,0.1,3.1,1.1,7.6
		c1,4.4,2.9,10.3,6.5,15.7c1.4,2.2,3.3,4,5.3,5.6c3.1,2.5,6.6,4.6,10.2,7.2c3.6,2.6,7.3,5.7,10.6,10.2c2.9,3.9,8,8.6,13.6,12.3
		c2.8,1.9,5.7,3.5,8.5,4.7c2.8,1.2,5.5,1.9,8,1.9c1.5,0,2.9-0.3,4.1-0.9c1.2-0.6,2.3-1.6,3.1-2.9c0.2-0.2,0.1-0.6-0.2-0.7
		C227.5,401.1,227.2,401.2,227,401.4L227,401.4z"/>
	<path class="st0" d="M175,426.4c0,0,0.2,0.2,0.6,0.6c1.4,1.3,5,4.6,8.9,8.1c3.8,3.5,7.9,7.2,10.1,9.4c2.3,2.2,4.7,3.6,7,4.6
		c2.3,0.9,4.4,1.3,6.1,1.3c0.6,0,1.1,0,1.6-0.1c0.5-0.1,0.8-0.5,0.7-1c-0.1-0.5-0.5-0.8-1-0.7c-0.4,0.1-0.8,0.1-1.3,0.1
		c-1.4,0-3.3-0.3-5.4-1.2c-2.1-0.8-4.3-2.2-6.5-4.2c-2.6-2.5-7.5-7-11.8-10.9c-4.3-3.9-7.9-7.2-7.9-7.2c-0.4-0.3-0.9-0.3-1.2,0.1
		C174.6,425.5,174.7,426.1,175,426.4L175,426.4z"/>
	<path class="st10" d="M175.9,512.4c11.8-0.2,8.8,2.4,16.3,4.1c6.9,1.6,30.6-1.9,35.1-2.7c3-0.5,22,5.4,27,4.5
		c1-0.2,1.3-2.4-0.7-3.6c-0.5-0.3,2.8,2.3,9.7,2.5c0,0,3.3-1,1.4-3.4c2.5-0.8,1.9-1.5,1.5-2.6c-0.7-2-35.9-23-40.1-22.3
		c-1.4,0.2-30,5.1-31.4,4.9c-1.5-0.2-6.6-1.5-15.8-3.6C179,490.1,172.6,498.3,175.9,512.4z"/>
	<g>
		<defs>
			<path id="SVGID_5_" d="M175.9,512.4c11.8-0.2,8.8,2.4,16.3,4.1c6.9,1.6,30.6-1.9,35.1-2.7c1.5-0.2,6.7,1,12.3,2.3
				c5.9,1.3,12.1,2.7,14.7,2.2c1-0.2,1.3-2.4-0.7-3.6c-0.5-0.3,2.8,2.3,9.7,2.5c0,0,3.3-1,1.4-3.4c2.5-0.8,1.9-1.5,1.5-2.6
				c-0.7-2-35.9-23-40.1-22.3c-1.4,0.2-30,5.1-31.4,4.9c-1.5-0.2-6.6-1.5-15.8-3.6C179,490.1,172.6,498.3,175.9,512.4"/>
		</defs>
		<clipPath id="SVGID_6_">
			<use xlink:href="#SVGID_5_"  style="overflow:visible;"/>
		</clipPath>
		<path class="st13" d="M173.2,506.3c4.8-0.1,9.7-0.1,14,2.1c1.4,0.7,2.7,1.7,4.1,2.3c2.9,1.3,6.2,1.2,9.4,0.9
			c8.5-0.8,17.1-3,25.4-1c3.4,0.8,6.6,2.4,9.9,3.7c5.8,2.3,12,3.8,18.2,4.3c-3.3,4.1-8.5,6.2-13.6,6.7c-5.1,0.6-10.2-0.1-15.3-0.6
			c-8-0.7-16-0.8-24-0.7c-9.6,0.2-19.4,0.7-28.7-1.7c-0.2-0.1-0.5-0.1-0.6-0.3c-0.2-0.2-0.2-0.5-0.2-0.7c-0.2-2.1-0.5-4.2-0.7-6.3
			c-0.3-2.6-0.5-5.8,1.5-7.5L173.2,506.3z"/>
	</g>
	<path class="st7" d="M254,514.4c-0.1-0.1-0.3-0.3-1-0.6c-0.7-0.4-1.9-0.9-4.1-1.7c-1-0.4-2.9-1.1-5-2.1c-3.2-1.4-7.2-3.1-10.4-4.6
		c-1.6-0.7-3-1.3-3.9-1.8c-0.5-0.2-0.9-0.4-1.2-0.5c-0.3-0.1-0.4-0.2-0.4-0.2c-0.3-0.1-0.6,0-0.7,0.3c-0.1,0.3,0,0.6,0.3,0.7
		c0,0,4.2,1.9,8.9,4c2.4,1,4.8,2.1,7,3.1c2.2,0.9,4,1.7,5.1,2.1c2.1,0.8,3.3,1.3,4,1.6c0.3,0.2,0.5,0.3,0.6,0.4c0,0,0.1,0.1,0.1,0.1
		l0,0l0.1-0.1l-0.1,0.1l0,0l0.1-0.1l-0.1,0.1l0.3-0.3l-0.3,0.3l0,0l0.3-0.3l-0.3,0.3c0.2,0.2,0.5,0.2,0.7,0
		C254.2,514.9,254.2,514.6,254,514.4L254,514.4z"/>
	<path class="st7" d="M265,513.4c0,0-5.9-3.1-12.8-6.7c-3.4-1.8-7-3.6-10.3-5.2c-3.2-1.6-6-2.9-7.8-3.7c-0.3-0.1-0.6,0-0.7,0.3
		c-0.1,0.3,0,0.6,0.3,0.7c1.7,0.7,4.6,2.1,7.8,3.6c4.8,2.4,10.6,5.3,15.1,7.7c2.3,1.2,4.2,2.2,5.6,3c0.7,0.4,1.3,0.7,1.6,0.9
		c0.4,0.2,0.6,0.3,0.6,0.3c0.3,0.1,0.6,0,0.7-0.2C265.4,513.8,265.3,513.5,265,513.4L265,513.4z"/>
	<path class="st7" d="M178.9,490.7c4.6,1.1,8.2,1.9,10.8,2.5c1.3,0.3,2.4,0.6,3.2,0.7c0.8,0.2,1.4,0.3,1.8,0.4l0,0
		c0.1,0,0.1,0,0.2,0c0.2,0,0.5,0,0.8-0.1c1.3-0.1,3.8-0.5,6.8-0.9c4.5-0.7,10.2-1.6,14.9-2.4c4.7-0.8,8.4-1.4,8.9-1.5
		c0,0,0.1,0,0.1,0c0.2,0,0.6,0.1,1.1,0.2c0.9,0.3,2.3,0.8,3.8,1.5c5.5,2.5,14,7.2,21.2,11.5c3.6,2.2,6.9,4.2,9.3,5.8
		c1.2,0.8,2.2,1.5,2.9,2c0.3,0.3,0.6,0.5,0.8,0.7c0.1,0.1,0.2,0.2,0.2,0.2l0,0.1l0,0l0,0l0,0l0,0l0,0l0,0l0.2-0.1l-0.2,0.1l0,0
		l0.2-0.1l-0.2,0.1c0.1,0.3,0.2,0.5,0.2,0.6c0.1,0.2,0.1,0.3,0.1,0.4c0,0.1,0,0.1,0,0.1c0,0.1-0.1,0.2-0.3,0.3
		c-0.2,0.1-0.6,0.3-1.1,0.5l-0.7,0.2l0.4,0.6c0.4,0.5,0.5,0.8,0.5,1.1c0,0.2-0.1,0.4-0.2,0.6c-0.2,0.3-0.6,0.5-0.9,0.7
		c-0.2,0.1-0.3,0.1-0.4,0.2c-0.1,0-0.1,0-0.1,0l0,0l0,0l0,0.1l0-0.1l0,0l0,0.1l0-0.1l0.2,0.5l0-0.5c-3.2-0.1-5.6-0.7-7.1-1.3
		c-0.8-0.3-1.4-0.6-1.8-0.8c-0.2-0.1-0.3-0.2-0.4-0.3c0,0-0.1-0.1-0.1-0.1l0,0l-0.2,0.2l0.2-0.2l0,0l-0.2,0.2l0.2-0.2l-0.3,0.3
		l0.4-0.3c0,0,0,0,0-0.1l-0.3,0.3l0.4-0.3l-0.4,0.3l0.5-0.2c0,0,0-0.1,0-0.1l-0.4,0.3l0.5-0.2l-0.5,0.2l0.5,0c0-0.1,0-0.2-0.1-0.2
		l-0.5,0.2l0.5,0h-0.5l0.5,0.2c0-0.1,0-0.2,0-0.2h-0.5l0.5,0.2l-0.5-0.2l0.4,0.4c0.1,0,0.1-0.1,0.1-0.2l-0.5-0.2l0.4,0.4l-0.4-0.4
		l0.1,0.5c0.1,0,0.1-0.1,0.2-0.1l-0.4-0.4l0.1,0.5l-0.1-0.5l0,0.5c0,0,0.1,0,0.1,0l-0.1-0.5l0,0.5v-0.5l-0.1,0.5c0,0,0.1,0,0.1,0
		v-0.5l-0.1,0.5l0.1-0.5l-0.2,0.4c0,0,0,0,0.1,0l0.1-0.5l-0.2,0.4l0.1-0.3l-0.2,0.3l0,0l0.1-0.3l-0.2,0.3l0,0l0,0l0,0l0,0l0,0l0,0
		c0.9,0.6,1.2,1.3,1.2,1.9c0,0.2-0.1,0.4-0.1,0.6c0,0.1-0.1,0.1-0.1,0.1c0,0-0.1,0-0.1,0c-0.3,0.1-0.7,0.1-1.1,0.1
		c-1.4,0-3.5-0.3-5.9-0.7c-3.5-0.7-7.7-1.6-11.3-2.4c-1.8-0.4-3.5-0.8-4.9-1c-0.7-0.1-1.3-0.2-1.9-0.3c-0.6-0.1-1-0.1-1.4-0.1
		c-0.2,0-0.4,0-0.5,0c-1.1,0.2-3.1,0.4-5.5,0.7c-3.7,0.4-8.4,0.9-13.1,1.3c-4.6,0.4-9.2,0.6-12.3,0.6c-4,0-6.9-1-9.8-2
		c-2.9-1-5.9-2.1-10-2.1c-0.2,0-0.4,0-0.7,0c-0.3,0-0.5,0.2-0.5,0.5c0,0.3,0.2,0.5,0.5,0.5c0.2,0,0.4,0,0.6,0c3.9,0,6.7,1,9.6,2
		c2.9,1,5.9,2.1,10.1,2.1c4.3,0,10.9-0.5,17-1.1c3.1-0.3,6-0.6,8.5-0.9c2.5-0.3,4.4-0.5,5.6-0.7c0.1,0,0.2,0,0.4,0
		c0.4,0,1.1,0.1,1.9,0.2c2.8,0.4,7.3,1.6,11.8,2.6c2.3,0.5,4.5,1,6.5,1.3c2,0.4,3.8,0.6,5.2,0.6c0.5,0,0.9,0,1.3-0.1
		c0.2,0,0.4-0.1,0.5-0.2c0.2-0.2,0.4-0.4,0.5-0.7c0.1-0.3,0.2-0.6,0.2-0.9c0-0.9-0.5-2.1-1.7-2.8l0,0l-0.1,0l-0.1,0l-0.1,0
		c0,0-0.1,0-0.1,0c0,0-0.1,0-0.1,0c0,0-0.1,0-0.1,0.1c-0.1,0-0.2,0.1-0.2,0.2c0,0.1-0.1,0.2-0.1,0.2c0,0.1,0,0.1,0,0.2
		c0,0.1,0.1,0.1,0.1,0.1c0,0,0.1,0.1,0.1,0.1l0.1,0.1c0.1,0.1,0.2,0.1,0.3,0.2c0.5,0.3,1.6,0.9,3.2,1.4c1.6,0.5,3.8,0.9,6.5,1l0.1,0
		l0.1,0c0,0,0.6-0.2,1.1-0.6c0.3-0.2,0.6-0.4,0.8-0.8c0.2-0.3,0.4-0.7,0.4-1.2c0-0.5-0.2-1.1-0.7-1.7l-0.4,0.3l0.2,0.5
		c0.8-0.3,1.3-0.5,1.6-0.8c0.2-0.1,0.3-0.3,0.4-0.5c0.1-0.2,0.1-0.4,0.1-0.6c0-0.3-0.1-0.5-0.1-0.7c-0.1-0.2-0.2-0.4-0.2-0.6
		c0-0.1-0.1-0.2-0.1-0.2c-0.1-0.1-0.2-0.2-0.3-0.4c-0.2-0.2-0.6-0.5-1-0.9c-1.6-1.2-4.5-3.2-8.1-5.4c-5.4-3.3-12.1-7.3-18-10.4
		c-2.9-1.6-5.7-2.9-7.9-3.9c-1.1-0.5-2.1-0.9-2.9-1.1c-0.4-0.1-0.8-0.2-1.1-0.3c-0.3-0.1-0.6-0.1-0.9-0.1c-0.1,0-0.2,0-0.3,0
		c-0.3,0.1-2.3,0.4-5.1,0.9c-4.2,0.7-10.3,1.7-15.5,2.5c-2.6,0.4-5,0.8-6.9,1.1c-0.9,0.1-1.7,0.2-2.4,0.3c-0.3,0-0.6,0.1-0.8,0.1
		c-0.2,0-0.4,0-0.5,0l0,0l0,0l0,0.1l0-0.1l0,0l0,0.1l0-0.1l0,0c-0.3-0.1-0.9-0.2-1.8-0.4c-2.5-0.5-7.1-1.7-14-3.3
		c-0.3-0.1-0.6,0.1-0.6,0.4C178.4,490.3,178.6,490.6,178.9,490.7L178.9,490.7z"/>
	<path d="M143.4,417.8c-4,13.5-6.9,26.7-9.9,37.6c-1.5,5.5-3,10.4-4.7,14.4c-1.7,4-3.5,7.2-5.5,9.3c-0.2,0.3-0.4,0.6-0.4,0.9
		c0,0.4,0.2,0.7,0.4,0.9c0.3,0.2,0.6,0.4,1,0.4c6.6,0.5,16.1,1.8,26,3.4c9.9,1.6,20.3,3.5,28.8,5c0.3,0.1,0.6-0.1,0.6-0.4
		c0.1-0.3-0.1-0.6-0.4-0.6c-8.5-1.5-18.9-3.4-28.8-5c-9.9-1.6-19.4-2.9-26.1-3.4c-0.1,0-0.3-0.1-0.3-0.1c-0.1-0.1-0.1-0.1-0.1-0.2
		c0,0,0-0.1,0.1-0.2c2.2-2.2,4-5.5,5.7-9.6c2.5-6.2,4.7-14.2,7-23.1c2.3-9,4.7-18.9,7.7-29c0.1-0.3-0.1-0.6-0.4-0.6
		C143.8,417.3,143.5,417.5,143.4,417.8L143.4,417.8z"/>
	<path d="M250.3,408.9c0,0-3.4,8.8-3.4,24.2c0,4.5,0.3,9.6,1,15.2c0.5,4.1,0.8,7.8,0.8,11.3c0,12.5-3.1,21.5-6.5,27.8
		c-0.1,0.3,0,0.6,0.2,0.7c0.3,0.1,0.6,0,0.7-0.2c3.5-6.4,6.7-15.6,6.7-28.3c0-3.5-0.2-7.3-0.8-11.4c-0.7-5.6-1-10.6-1-15
		c0-7.7,0.8-13.6,1.7-17.7c0.4-2,0.8-3.6,1.1-4.6c0.2-0.5,0.3-0.9,0.4-1.2c0-0.1,0.1-0.2,0.1-0.3c0,0,0-0.1,0-0.1l0,0l0,0
		c0.1-0.3,0-0.6-0.3-0.7C250.7,408.5,250.4,408.6,250.3,408.9L250.3,408.9z"/>
	<path class="st7" d="M122.9,480.1c0,0-7.2,3.4-12.6,3"/>
	<path d="M123.3,481c-1.1,0.4-2.1,0.8-3.2,1.1c-1.1,0.3-2.1,0.6-3.2,0.9c-1.1,0.2-2.2,0.4-3.3,0.5c-1.1,0.1-2.2,0.1-3.4,0
		c-0.2,0-0.3-0.2-0.3-0.4c0-0.2,0.2-0.3,0.4-0.3c1.1,0.1,2.1,0,3.2-0.2c1.1-0.2,2.1-0.4,3.1-0.7c1-0.3,2-0.6,3-1
		c1-0.4,2-0.8,2.9-1.3l0,0c0.4-0.2,0.9,0,1,0.4C123.9,480.3,123.8,480.8,123.3,481L123.3,481z"/>
	<path class="st2" d="M239,376.5c0,0-3.7,8.1,0,14.4c3.7,6.3,4.1,12.2,4.1,12.2l-5.1,1.3c0,0-2.6-3.4-4.3-12
		C232.1,383.8,235.3,378.6,239,376.5z"/>
	<path d="M177.1,516.9c-2.2-4.9-2.1-12.2-2.1-12.2c-49.5-2.2-100.8,3.3-92.5-28.5c7.6-29,16.6-54.9,16-77.6c-0.8-31,19-36.8,19-36.8
		c-16.6,0.5-26.7,38.3-26.7,38.3s-18.2,70.4-16.5,94.1c1.3,17.6,16,21,23.5,21.6l0,0C102.8,516.6,177.1,516.9,177.1,516.9z"/>
	<path class="st2" d="M243,402.3c0,0-0.9-2.3-7.3-2.5c0,0,6.8,11.1-6,23.7C229.8,423.5,243.1,416.1,243,402.3z"/>
	<path class="st7" d="M259.8,331.5l-0.2-0.4L259.8,331.5C259.7,331.5,259.7,331.5,259.8,331.5l-0.2-0.4L259.8,331.5l-0.1-0.1
		L259.8,331.5L259.8,331.5l-0.1-0.1L259.8,331.5c0,0,0,0,0.2,0c0.4-0.1,1.3-0.3,2.3-0.5c0.5-0.1,0.9-0.3,1.4-0.4
		c0.4-0.2,0.8-0.3,1.2-0.5c1.3-0.8,2.2-2.3,2.2-3.9c0-0.1,0-0.2,0-0.3c-0.1-1.3-0.4-2.7-0.8-4.3c-0.6-2.3-1.5-4.9-2.2-7.6
		c-0.7-2.7-1.3-5.4-1.3-7.9c0-0.6,0-1.2,0.1-1.8c0-0.3-0.2-0.5-0.5-0.6c-0.3,0-0.5,0.2-0.6,0.5c-0.1,0.6-0.1,1.3-0.1,1.9
		c0,3.6,1,7.4,2.1,10.9c0.5,1.7,1.1,3.4,1.5,4.9c0.4,1.5,0.7,2.9,0.8,4.1c0,0.1,0,0.2,0,0.2c0,1.2-0.7,2.4-1.7,3
		c-0.2,0.2-0.7,0.3-1.2,0.5c-0.7,0.2-1.6,0.5-2.3,0.6c-0.3,0.1-0.6,0.1-0.9,0.2c-0.1,0-0.2,0-0.3,0.1c0,0-0.1,0-0.1,0l0,0l0,0
		c0,0,0,0-0.1,0c-0.3,0.1-0.4,0.4-0.3,0.7C259.2,331.5,259.5,331.6,259.8,331.5L259.8,331.5z"/>
	<path class="st1" d="M233,361.3c-7.2-1.1-13.4-5.8-16.7-12.3c-1.3-2.7-2.7-5.6-3.9-8.3c-0.6-1.3-1.1-2.6-1.4-3.8
		c-0.4-1.1-0.6-2.2-0.7-2.9l-0.9,0.1l0.6,0.6c0,0,3.4-3.7,7.7-10c4.4-6.2,9.8-15,13.9-25.2c3.9-9.7,9.2-18.1,14.7-24.5
		c2.8-3.2,5.6-5.8,8.4-7.8c2.8-2,5.5-3.3,8.1-3.9c0.5-0.1,0.8-0.6,0.6-1c-0.1-0.5-0.6-0.8-1-0.6c-2.8,0.7-5.7,2.1-8.7,4.2
		c-4.4,3.1-8.8,7.7-12.9,13.3c-4.1,5.6-7.8,12.3-10.8,19.7c-4,10-9.4,18.7-13.7,24.8c-2.2,3.1-4.1,5.5-5.4,7.2
		c-0.7,0.8-1.2,1.5-1.6,1.9c-0.2,0.2-0.3,0.4-0.4,0.5c0,0.1-0.1,0.1-0.1,0.1l0,0l0,0l-0.3,0.3l0.1,0.4c0.1,1,0.4,2,0.8,3.3
		c1.2,3.6,3.4,8.3,5.4,12.3c3.5,7,10.2,12,18,13.3c0.5,0.1,0.9-0.2,1-0.7C233.8,361.8,233.5,361.4,233,361.3L233,361.3z"/>
	<path class="st2" d="M215.4,427.3c1.1,0.1,2.2,0.2,3.3,0.2c3.1,0,5.7-0.6,7.9-1.5c3.3-1.4,5.6-3.7,7.3-6.1c1.7-2.4,2.7-4.9,3.4-6.9
		c0.6-1.7,0.9-3.5,0.9-5.3c0-4.2-1.4-8.6-3.1-12.7c-0.6-1.5-0.9-3.4-0.9-5.3c0-2.5,0.5-5.2,1.4-7.5c0.9-2.3,2.3-4.3,3.8-5.4
		c0.2-0.2,0.3-0.5,0.1-0.7c-0.2-0.2-0.5-0.3-0.7-0.1c-1.8,1.3-3.2,3.4-4.2,5.9c-1,2.4-1.5,5.2-1.5,7.9c0,2,0.3,4,1,5.7
		c1.7,4.1,3,8.4,3,12.3c0,1.7-0.2,3.4-0.8,4.9c-0.9,2.6-2.4,6-5.1,8.8c-1.4,1.4-3,2.6-5,3.5c-2,0.9-4.5,1.4-7.4,1.4
		c-1,0-2-0.1-3.1-0.2c-0.3,0-0.5,0.2-0.6,0.5C214.9,427,215.1,427.3,215.4,427.3L215.4,427.3z"/>
	<path d="M178.9,488.9c0,0-1.1,1.3-2.2,3.7c-1.1,2.4-2.2,6-2.2,10.7c0,3.6,0.6,7.8,2.4,12.6c0.1,0.3,0.4,0.4,0.7,0.3
		c0.3-0.1,0.4-0.4,0.3-0.7c-1.7-4.7-2.3-8.8-2.3-12.3c0-4.6,1.1-8,2.1-10.3c0.5-1.2,1.1-2,1.4-2.6c0.2-0.3,0.4-0.5,0.5-0.6
		c0.1-0.1,0.1-0.1,0.1-0.2l0,0l0,0l0,0l-0.2-0.1l0.2,0.1l0,0l-0.2-0.1l0.2,0.1c0.2-0.2,0.2-0.5,0-0.7
		C179.4,488.7,179.1,488.7,178.9,488.9L178.9,488.9z"/>
	<polygon class="st8" points="219.7,510.3 225.9,517.6 413.2,517.6 456.5,415.5 345,415.5 306.3,511.1 	"/>
	<path class="st9" d="M345,415.5c0,0-0.5,48.4,37.5,61.5c39.3,13.6,33.1,34.6,33.1,34.6l-109.3-0.6L345,415.5z"/>
	<path d="M37.4,519.6h407.7c1.1,0,2-0.9,2-2s-0.9-2-2-2H37.4c-1.1,0-2,0.9-2,2S36.3,519.6,37.4,519.6"/>
	<path class="st7" d="M250.5,325.4c-0.1,0.2-0.1,0.5-0.1,0.7c0,0.7,0.2,1.6,0.8,2.4c0.6,0.8,1.5,1.5,2.8,1.9
		c0.3,0.1,0.6-0.1,0.7-0.3c0.1-0.3-0.1-0.6-0.3-0.7c-1.1-0.4-1.8-0.9-2.2-1.5c-0.4-0.6-0.6-1.2-0.6-1.8c0-0.2,0-0.4,0.1-0.5
		c0.1-0.3-0.1-0.6-0.4-0.6C250.8,324.9,250.5,325.1,250.5,325.4L250.5,325.4z"/>
	<path class="st10" d="M254.8,347.1c-0.7,1.5-6-1.2-5.1-2.6C250.2,343.8,256.4,343.8,254.8,347.1z"/>
	<path d="M247.7,305.2c0,1.9-1.5,3.4-3.4,3.4c-1.9,0-3.4-1.5-3.4-3.4c0-1.9,1.5-3.4,3.4-3.4C246.2,301.8,247.7,303.3,247.7,305.2z"
		/>
	<path class="st9" d="M621.9,489.2c0,0-2.4,27.2-3.6,41.6c-2.7,34.1-22.4,38.5-22.4,38.5s7.7,0.1,14.5,0.6l15.9-18.3
		C626.4,551.7,620.9,533.9,621.9,489.2z"/>
	<path class="st9" d="M510.7,487.7c0,0,3.8,25.3,2.3,43.2c-1.5,17.5,8.3,29.9,26.1,35.3l-15.4-0.6l-24.2-22.7
		C499.5,542.8,508.3,507.8,510.7,487.7z"/>
	<path d="M590.9,491.3l-3.2,3.7c0,0-0.8-16.5-4.9-26.4C582.7,468.6,588.3,474.5,590.9,491.3z"/>
	<path d="M546,491.9l3.1,2.2c0,0-1.1-13.1,2.8-27.6C552,466.6,545,478.9,546,491.9z"/>
	<path d="M626.9,552.3L626.9,552.3c0.3,0,6.2,0.1,16.1,2.4c0.3,0.1,0.6-0.1,0.6-0.4c0.1-0.3-0.1-0.6-0.4-0.6
		c-10.2-2.4-16.3-2.4-16.3-2.4c-0.3,0-0.5,0.2-0.5,0.5C626.4,552.1,626.6,552.3,626.9,552.3L626.9,552.3z"/>
	<path class="st2" d="M657,457.2l0.1-0.2L657,457.2L657,457.2l0.1-0.2L657,457.2c0,0,1.8,1,3.6,4.6c1.8,3.6,3.6,9.9,3.6,20.4
		c0,0.1,0,0.2,0,0.3c0,0.5,0,1,0,1.6c0,19.5,1,55.8,1,55.8c0,0.3,0.2,0.5,0.5,0.5c0.3,0,0.5-0.2,0.5-0.5c0,0,0-0.6,0-1.6
		c-0.2-7.2-1-37.1-1-54.2c0-0.5,0-1.1,0-1.6c0-0.1,0-0.2,0-0.3c0-10.8-1.9-17.3-3.8-21.1c-1.9-3.8-3.9-4.9-3.9-4.9
		c-0.3-0.1-0.6,0-0.7,0.2C656.6,456.7,656.7,457,657,457.2L657,457.2z"/>
	<path class="st14" d="M585.8,433.1c0,0-2.3,24.3-14.6,31.5c0,0-9.1,4-25,0.4c0,0,14.5,0,28.5-11.8c5.7-4.8,9.2-10.2,10.4-17.6
		C585.3,435.2,585.8,433.5,585.8,433.1z"/>
	<path class="st14" d="M517.2,394.6l-0.2,0c0.3,2.5,1,5.3,2,7.9c0,0,0,0,0,0c-0.1-1.1-0.2-2.2-0.5-3.3
		C518,396.7,517.5,395.6,517.2,394.6 M516.9,383.7c0,0.1-0.2,1.5-0.3,3.7C516.7,386.3,516.8,385.1,516.9,383.7 M533,346.3
		c-0.3,0.2-4.6,3.5-8.8,11.9C526.4,353.9,529.2,349.8,533,346.3"/>
	<path class="st14" d="M521,393.9l-3.8,0.7c0.3,1,0.8,2.1,1.4,4.6c0.3,1.2,0.4,2.2,0.5,3.3c2.1,5.2-0.6,6.4-1.1,12.4
		c0.1,3.6,0.6,6.4,1.3,8.4c0.5,1.5,1.4,2.9,2.5,3.9c3.6,2.4,8.9,3.1,12.8,3.2c0.4,0,0.8,0,1.3,0c1.1-0.1,2.1-0.1,3.1-0.1
		c0.2,0,0.4,0,0.5,0c-0.1,0-2.9-0.5-5.4-1.7c0,0,0,0-0.1,0c-0.8-0.3-1.7-0.8-2.6-1.5c-0.7-0.5-1.1-1.1-1.4-1.7
		c-0.3-0.6-0.4-1.4-0.4-2.1c0-1.1,0.3-2.3,0.8-3.5c0.5-1.2,1.1-2.4,1.8-3.6c1.1-3.7,2.3-8.2,2.8-12.2c-0.1,0.1-0.2,0.1-0.3,0.1
		c-0.1,0-0.2,0-0.3-0.1c-2.1-1.6-4.1-2.6-5.8-3.1c0.2,0.3,0.2,0.6,0.2,1.1c0,1.9-1.5,3.4-3.4,3.4c-1.9,0-3.4-1.5-3.4-3.4
		c0-0.7,0.2-1.2,0.5-1.5c-0.9,0.2-1.5,0.5-1.6,0.5l0,0h0h0l0,0c-0.1,0-0.2,0.1-0.3,0.1c-0.2,0-0.4-0.1-0.5-0.3
		c-0.1-0.3,0-0.6,0.2-0.7c0.1,0,1.6-0.9,4.2-0.9c0,0,0,0,0,0c2.6,0,6.2,0.8,10.4,4c0,0,0,0,0.1,0c0.2-2.4,0.2-4.5-0.4-6.3
		c0-0.1-0.1-0.3-0.1-0.4L521,393.9 M533,346.2C533,346.2,533,346.2,533,346.2c-3.7,3.6-6.6,7.7-8.8,11.9c-2.9,5.8-5.8,14.1-7.2,25.5
		c0,0,0,0,0,0c-0.1,1.4-0.2,2.6-0.3,3.7c0,1.5,0,3.5,0.2,5.6l3.6-2.8l0.3-0.2l0.8,0.1l10.8,1.3C528.2,381.8,521.8,366,533,346.2"/>
	<path d="M521.9,393.8L521.9,393.8 M520.7,389.9l-0.3,0.2l-3.6,2.8c0.1,0.5,0.1,1.1,0.2,1.7l0.2,0l3.8-0.7l13.5,2.6
		c-0.5-1.4-1.3-3.2-2.1-5.2l-10.8-1.3L520.7,389.9"/>
	<path d="M524.5,400.2c-0.8,0-1.5,0.1-2.1,0.2c-0.3,0.3-0.5,0.8-0.5,1.5c0,1.9,1.5,3.4,3.4,3.4c1.9,0,3.4-1.5,3.4-3.4
		c0-0.4-0.1-0.8-0.2-1.1C526.9,400.4,525.6,400.2,524.5,400.2"/>
	<path d="M520.7,400.7L520.7,400.7 M524.5,399.2C524.5,399.2,524.5,399.2,524.5,399.2c-2.6,0-4.1,0.8-4.2,0.9
		c-0.3,0.1-0.3,0.5-0.2,0.7c0.1,0.2,0.3,0.3,0.5,0.3c0.1,0,0.2,0,0.3-0.1h0h0l0,0c0.1,0,0.6-0.3,1.6-0.5c0.6-0.1,1.3-0.2,2.1-0.2
		c1.1,0,2.4,0.2,3.9,0.6c1.7,0.5,3.7,1.5,5.8,3.1c0.1,0.1,0.2,0.1,0.3,0.1c0.1,0,0.2,0,0.3-0.1c0-0.3,0.1-0.5,0.1-0.8c0,0,0,0-0.1,0
		C530.7,400,527.1,399.2,524.5,399.2"/>
	<path d="M539,430.4c-1,0-2.1,0-3.1,0.1c-0.4,0-0.8,0-1.3,0c0.5,0,0.9,0,1.3,0c2.1,0,3.6-0.1,3.6-0.1s0,0,0,0
		C539.4,430.4,539.2,430.4,539,430.4 M517.9,415c-0.2,1.7-0.1,3.9,0.2,6.6c0.3,2.6,1.7,4.4,3.7,5.7c-1.1-1.1-2-2.4-2.5-3.9
		C518.5,421.3,518,418.6,517.9,415"/>
	<path d="M532.1,416.2c-0.7,1.2-1.3,2.4-1.8,3.6c-0.5,1.2-0.8,2.4-0.8,3.5c0,0.7,0.1,1.4,0.4,2.1c0.3,0.6,0.8,1.2,1.4,1.7
		c1,0.7,1.8,1.2,2.6,1.5c0,0,0,0,0.1,0c-2.5-1.1-4.7-3-4.1-5.7C530.4,421.7,531.2,419.2,532.1,416.2"/>
	<path class="st15" d="M545.9,403.3l0.4,0.7c0.6-0.4,1.7-0.8,3-1.1c1.3-0.3,2.9-0.5,4.6-0.5c1.9,0,4,0.3,6.1,1
		c2.1,0.7,4.1,1.8,5.9,3.5c0.3,0.2,0.4,0.5,0.6,0.9c0.1,0.3,0.2,0.7,0.2,1.1c0,0.2,0,0.4-0.1,0.6l0,0c-0.2,1-0.4,2.3-0.8,3.7
		c-0.6,2.1-1.6,4.4-3.2,6.1c-0.8,0.9-1.7,1.6-2.9,2.1c-1.1,0.5-2.5,0.8-4.1,0.8c-2.2,0-4-0.5-5.4-1.3c-1.1-0.6-2-1.4-2.7-2.3
		c-1.1-1.4-1.9-3-2.3-4.8c-0.5-1.8-0.7-3.6-0.7-5.3c0-0.7,0-1.4,0.1-2.1c0.1-0.5,0.2-1,0.6-1.5c0.3-0.4,0.7-0.8,1.3-1.1L545.9,403.3
		l-0.4-0.7c-0.7,0.4-1.3,0.9-1.7,1.6c-0.5,0.6-0.8,1.4-0.8,2.2c-0.1,0.7-0.1,1.4-0.1,2.2c0,1.6,0.2,3.4,0.6,5.1
		c0.6,2.6,1.7,5.1,3.7,7c1,0.9,2.2,1.7,3.6,2.3c1.4,0.5,3,0.8,4.9,0.8c2.4,0,4.4-0.6,6-1.6c1.2-0.8,2.2-1.7,3-2.8
		c1.2-1.6,2-3.4,2.5-5.1c0.5-1.7,0.8-3.3,1.1-4.5l0,0c0.1-0.3,0.1-0.6,0.1-0.9c0-0.6-0.1-1.1-0.3-1.7c-0.2-0.5-0.5-1-1-1.5
		c-2-1.9-4.2-3.1-6.5-3.9c-2.3-0.8-4.5-1.1-6.6-1.1c-1.8,0-3.5,0.2-4.9,0.6c-1.4,0.3-2.6,0.8-3.4,1.2L545.9,403.3z"/>
	<path class="st15" d="M515.2,398.6l0.4,0.7c0.6-0.4,1.7-0.8,3-1.1c1.3-0.3,2.9-0.5,4.6-0.5c1.9,0,4,0.3,6.1,1
		c2.1,0.7,4.1,1.8,5.9,3.5c0.3,0.2,0.4,0.5,0.6,0.9c0.1,0.3,0.2,0.7,0.2,1.1c0,0.2,0,0.4-0.1,0.6l0,0c-0.2,1-0.4,2.3-0.8,3.7
		c-0.6,2.1-1.6,4.4-3.2,6.1c-0.8,0.9-1.7,1.6-2.9,2.1c-1.1,0.5-2.5,0.8-4.1,0.8c-2.2,0-4-0.5-5.4-1.3c-1.1-0.6-2-1.4-2.7-2.3
		c-1.1-1.4-1.9-3-2.3-4.8c-0.5-1.8-0.7-3.6-0.7-5.3c0-0.7,0-1.4,0.1-2.1c0.1-0.5,0.2-1,0.6-1.5c0.3-0.4,0.7-0.8,1.3-1.1L515.2,398.6
		l-0.4-0.7c-0.7,0.4-1.3,0.9-1.7,1.6c-0.5,0.6-0.8,1.4-0.8,2.2c-0.1,0.7-0.1,1.4-0.1,2.2c0,1.6,0.2,3.4,0.6,5.1
		c0.6,2.6,1.7,5.1,3.7,7c1,0.9,2.2,1.7,3.6,2.3c1.4,0.5,3,0.8,4.9,0.8c2.4,0,4.4-0.6,6-1.6c1.2-0.8,2.2-1.7,3-2.8
		c1.2-1.6,2-3.4,2.5-5.1c0.5-1.7,0.8-3.3,1.1-4.5l0,0c0.1-0.3,0.1-0.6,0.1-0.9c0-0.6-0.1-1.1-0.3-1.7c-0.2-0.5-0.5-1-1-1.5
		c-2-1.9-4.2-3.1-6.5-3.9c-2.3-0.8-4.5-1.1-6.6-1.1c-1.8,0-3.5,0.2-4.9,0.6c-1.4,0.3-2.6,0.8-3.4,1.2L515.2,398.6z"/>
	<path class="st15" d="M567.8,409.1C567.8,409.1,567.9,409.1,567.8,409.1c0.7-0.4,6.1-3.7,12.3-6.8c3.1-1.6,6.5-3.1,9.5-4.3
		c1.5-0.6,3-1.1,4.3-1.4c1.3-0.3,2.5-0.5,3.4-0.5c0.5,0,0.8,0,1.2,0.1c0.3,0.1,0.6,0.2,0.8,0.3l0.9-1.3c-0.4-0.3-0.8-0.5-1.3-0.6
		c-0.5-0.1-1-0.2-1.5-0.2c-1.2,0-2.5,0.2-3.9,0.6c-2.5,0.6-5.4,1.8-8.3,3.1c-8.8,3.9-18.1,9.6-18.1,9.6L567.8,409.1L567.8,409.1z"/>
	<path class="st15" d="M537.1,403.5l-0.4-0.4L537.1,403.5L537.1,403.5l-0.4-0.4L537.1,403.5L537.1,403.5L537.1,403.5L537.1,403.5
		L537.1,403.5L537.1,403.5c0,0,0.2-0.2,0.6-0.3c0.3-0.2,0.8-0.3,1.5-0.3c0.5,0,1.2,0.1,2,0.5c0.8,0.4,1.7,1,2.7,2.1l1.1-1.1
		c-1.1-1.2-2.2-1.9-3.1-2.4c-1-0.5-1.9-0.7-2.7-0.7c-0.9,0-1.7,0.3-2.2,0.5c-0.5,0.3-0.8,0.5-0.8,0.6L537.1,403.5L537.1,403.5z"/>
	<path class="st14" d="M536.7,432.2c0,0-4.6,2.2-3.8,7.3c0.9,5.1,5.4,4.3,8.5,4.8c3.1,0.4,1.5,4.6,1.5,4.6s-9.9,1.8-14.4-7.3
		C524.1,432.5,536.7,432.2,536.7,432.2z"/>
	<path d="M532.1,437L532.1,437L532.1,437L532.1,437L532.1,437L532.1,437c0.1,0,2.1-1.1,6.3-1.1c0.3,0,0.6,0,0.9,0
		c2.1,0.1,4.6,0.7,7.1,1.3c2.5,0.6,5,1.2,7.3,1.2c0.7,0,1.3-0.1,2-0.2c0.3-0.1,0.5-0.3,0.4-0.6c-0.1-0.3-0.3-0.5-0.6-0.4
		c-0.5,0.1-1.1,0.2-1.7,0.2c-2.1,0-4.5-0.6-7-1.2c-2.5-0.6-5-1.3-7.3-1.4c-0.3,0-0.6,0-0.9,0c-4.5,0-6.7,1.2-6.8,1.3
		c-0.2,0.1-0.3,0.5-0.2,0.7C531.5,437.1,531.8,437.2,532.1,437L532.1,437z"/>
	<path d="M532.5,437.9c0,0,0,0.2,0,0.5c0,0.6,0.1,1.8,0.9,2.9c0.4,0.6,0.9,1.1,1.7,1.6c0.8,0.5,1.7,0.9,2.9,1.1
		c1.2,0.2,2.3,0.3,3.5,0.3c2.3,0,4.5-0.4,6.3-1c0.9-0.3,1.7-0.7,2.4-1c0.7-0.4,1.3-0.8,1.7-1.2c0.2-0.2,0.2-0.5,0-0.7
		c-0.2-0.2-0.5-0.2-0.7,0c-0.3,0.3-0.8,0.7-1.4,1c-0.9,0.5-2.2,1-3.6,1.3c-1.4,0.4-3,0.6-4.7,0.6c-1.1,0-2.2-0.1-3.3-0.3
		c-1.1-0.2-1.9-0.6-2.6-1c-0.9-0.6-1.4-1.3-1.7-2c-0.3-0.7-0.3-1.3-0.3-1.6c0-0.1,0-0.2,0-0.3c0,0,0,0,0-0.1l0,0l0,0l-0.3,0l0.3,0
		l0,0l-0.3,0l0.3,0c0-0.3-0.2-0.6-0.4-0.6C532.8,437.4,532.5,437.6,532.5,437.9L532.5,437.9z"/>
	
		<ellipse transform="matrix(0.5748 -0.8183 0.8183 0.5748 -5.6101 729.0468)" class="st4" cx="698.7" cy="369.9" rx="33.1" ry="33.1"/>
	
		<ellipse transform="matrix(0.771 -0.6368 0.6368 0.771 -39.5782 192.8046)" class="st8" cx="248.3" cy="151.4" rx="33.1" ry="33.1"/>
	<path class="st4" d="M43.5,387.9c17.8,4.3,28.8,22.1,24.5,39.9c-4.3,17.8-22.1,28.8-39.9,24.5C10.3,448-0.7,430.2,3.6,412.4
		C7.8,394.6,25.7,383.6,43.5,387.9z"/>
	<path class="st8" d="M694.6,289.9c6.6,6,7.1,16.1,1.1,22.7c-6,6.6-16.1,7.1-22.7,1.1c-6.6-6-7.1-16.1-1.1-22.7
		C677.8,284.4,688,283.9,694.6,289.9z"/>
	
		<ellipse transform="matrix(0.9988 -4.945619e-02 4.945619e-02 0.9988 -0.9418 28.3246)" class="st4" cx="571.9" cy="33.2" rx="16.1" ry="16.1"/>
	<path d="M60.9,441.3c-15.5,9.5-35.7,4.7-45.2-10.8c-7.3-11.9-6.3-27.1,2.5-38C2.7,402-2.1,422.3,7.4,437.7
		c9.5,15.5,29.8,20.3,45.2,10.8C55.8,446.6,58.6,444.1,60.9,441.3z"/>
	<path d="M724,390.9c-15.5,9.5-35.7,4.7-45.2-10.8c-7.3-11.9-6.3-27.1,2.5-38c-15.5,9.5-20.3,29.8-10.8,45.2
		c9.5,15.5,29.8,20.3,45.2,10.8C718.9,396.2,721.7,393.8,724,390.9z"/>
	<path d="M584.3,43.4c-7.6,4.7-17.5,2.3-22.2-5.3c-3.6-5.8-3.1-13.3,1.2-18.6c-7.6,4.7-9.9,14.6-5.3,22.2c4.7,7.6,14.6,9.9,22.2,5.3
		C581.7,46,583.1,44.8,584.3,43.4z"/>
	<path d="M696.1,311.9c-7.5,4.6-17.2,2.3-21.8-5.2c-3.5-5.7-3-13.1,1.2-18.3c-7.5,4.6-9.8,14.3-5.2,21.8c4.6,7.5,14.3,9.8,21.8,5.2
		C693.6,314.5,695,313.3,696.1,311.9z"/>
	<path d="M253.3,177c-6.6-0.7-12.3-5.3-14.2-11.6c-1.2-4.1-3.7-8.9-7.8-11.5c-4.6-3-6.5-6-7.1-8.9c-0.7-8.3,1.3-14.9,6.8-21.7
		c-15.6,9.6-20.4,30-10.9,45.5c9.6,15.6,30,20.4,45.5,10.9c3.2-1.9,6-4.4,8.3-7.3C267.5,176.2,260.3,177.7,253.3,177z"/>
	<path class="st2" d="M227.1,158.2c3.8,8,0.5,17.6-7.6,21.4c-8,3.8-17.6,0.5-21.4-7.6c-3.8-8-0.5-17.6,7.6-21.4
		C213.6,146.8,223.2,150.2,227.1,158.2z"/>
	<path class="st0" d="M227.1,158.2l-0.7,0.3c1,2.1,1.5,4.4,1.5,6.6c0,2.9-0.8,5.6-2.3,8.1c-1.5,2.4-3.7,4.4-6.4,5.8
		c-2.1,1-4.4,1.5-6.6,1.5c-2.9,0-5.6-0.8-8.1-2.3c-2.4-1.5-4.4-3.7-5.8-6.4c-1-2.1-1.5-4.4-1.5-6.6c0-2.9,0.8-5.6,2.3-8.1
		c1.5-2.4,3.7-4.4,6.4-5.8c2.1-1,4.4-1.5,6.6-1.5c2.9,0,5.6,0.8,8.1,2.3c2.4,1.5,4.4,3.7,5.8,6.4L227.1,158.2l0.7-0.3
		c-1.4-3-3.7-5.4-6.3-7.1c-2.7-1.6-5.7-2.5-8.9-2.5c-2.4,0-4.9,0.5-7.3,1.7c-3,1.4-5.4,3.7-7.1,6.3c-1.6,2.7-2.5,5.7-2.5,8.9
		c0,2.4,0.5,4.9,1.7,7.3c1.4,3,3.7,5.4,6.3,7.1c2.7,1.6,5.7,2.5,8.9,2.5c2.4,0,4.9-0.5,7.3-1.7c3-1.4,5.4-3.7,7.1-6.3
		c1.6-2.7,2.5-5.7,2.5-8.9c0-2.4-0.5-4.9-1.7-7.3L227.1,158.2z"/>
	<path class="st0" d="M224.9,174.9c-7.5,4.6-17.2,2.3-21.8-5.2c-3.5-5.7-3-13.1,1.2-18.3c-7.5,4.6-9.8,14.3-5.2,21.8
		c4.6,7.5,14.3,9.8,21.8,5.2C222.5,177.5,223.8,176.3,224.9,174.9z"/>
	<rect x="324.7" y="98.8" class="st3" width="116.8" height="166.6"/>
	<rect x="449.3" y="102.4" class="st4" width="79.8" height="39"/>
	<rect x="453.2" y="98.8" class="st2" width="79.8" height="39"/>
	<polygon class="st4" points="533,137.8 533,137.2 453.8,137.2 453.8,99.4 532.4,99.4 532.4,137.8 533,137.8 533,137.2 533,137.8 
		533.6,137.8 533.6,98.2 452.6,98.2 452.6,138.4 533.6,138.4 533.6,137.8 	"/>
	<rect x="453.2" y="147.5" class="st3" width="79.8" height="117.9"/>
	<path d="M499.6,542.3c0,0-3.2-0.9-8-0.9c-3.1,0-6.8,0.4-10.7,1.6c-0.3,0.1-0.4,0.4-0.3,0.7c0.1,0.3,0.4,0.4,0.7,0.3
		c3.8-1.2,7.5-1.5,10.4-1.5c2.3,0,4.2,0.2,5.6,0.4c0.7,0.1,1.2,0.2,1.6,0.3c0.2,0,0.3,0.1,0.4,0.1c0,0,0.1,0,0.1,0l0,0l0,0
		c0.3,0.1,0.6-0.1,0.6-0.4C500.1,542.7,499.9,542.4,499.6,542.3L499.6,542.3z"/>
	<rect x="478.6" y="177.9" class="st16" width="79.8" height="96.5"/>
	<path class="st1" d="M523,282.5h-44.4v13.8h22.1C506.4,293.2,519.4,287.6,523,282.5z"/>
	<path class="st1" d="M286.4,261.5v41.2h38.1c-0.2-0.2-0.4-0.3-0.6-0.4C314.3,286.7,297.8,268.6,286.4,261.5z"/>
	<path class="st11" d="M286.4,229v32.5c12.6,9.5,31.9,31.5,37.6,41.2h39.7C329.4,287.5,300.9,258.8,286.4,229z"/>
	<path class="st1" d="M403.2,136.2H286.4V226c15.1,32,46.4,62.6,81.2,76.7h35.6V136.2z"/>
	<path d="M592.4,405.7L592.4,405.7c0.1-0.3,1-2.7,2.6-5c0.8-1.2,1.8-2.3,2.9-3.1c1.1-0.8,2.4-1.4,3.9-1.4c0.4,0,0.8,0,1.3,0.1
		c1.7,0.4,3,1.2,3.9,2.4c0.9,1.2,1.3,2.8,1.3,4.6c0,3.1-1.3,7-4,10.9c-2.7,3.9-6.8,8-12.4,11.4c-0.2,0.2-0.3,0.5-0.2,0.7
		c0.2,0.2,0.5,0.3,0.7,0.2c5.7-3.5,9.9-7.6,12.7-11.7c2.8-4.1,4.2-8.1,4.2-11.5c0-2-0.5-3.8-1.5-5.2c-1-1.4-2.5-2.4-4.5-2.8
		c-0.5-0.1-1-0.2-1.5-0.2c-1.8,0-3.3,0.7-4.6,1.6c-1.9,1.5-3.4,3.6-4.3,5.4c-0.9,1.8-1.4,3.2-1.4,3.2c-0.1,0.3,0.1,0.6,0.3,0.7
		C592,406.2,592.3,406,592.4,405.7L592.4,405.7z"/>
	<path class="st2" d="M696.1,344.3L696.1,344.3c0.3,0,6.2,0.1,12.5,2.8c3.1,1.4,6.3,3.4,9,6.4c2.7,3,4.8,7,5.9,12.3
		c0.1,0.3,0.4,0.6,0.7,0.5c0.3-0.1,0.6-0.4,0.5-0.7c-1.1-5.6-3.4-9.9-6.3-13c-4.3-4.8-9.9-7.1-14.4-8.3c-4.5-1.2-7.9-1.2-7.9-1.2
		c-0.3,0-0.6,0.3-0.6,0.6C695.5,344,695.7,344.3,696.1,344.3L696.1,344.3z"/>
	<path class="st2" d="M244.3,125.4L244.3,125.4c0.4,0,6.5,0.1,13.1,3c3.3,1.4,6.7,3.6,9.5,6.7c2.8,3.2,5.1,7.3,6.2,12.9
		c0.1,0.3,0.4,0.6,0.7,0.5c0.3-0.1,0.6-0.4,0.5-0.7c-1.1-5.9-3.6-10.4-6.6-13.7c-4.6-5-10.4-7.5-15.1-8.7c-4.7-1.2-8.3-1.2-8.3-1.2
		c-0.3,0-0.6,0.3-0.6,0.6C243.7,125.1,243.9,125.4,244.3,125.4L244.3,125.4z"/>
	<path class="st2" d="M570.3,21.9L570.3,21.9c0.1,0,2.8,0,5.7,1.3c1.4,0.6,2.9,1.5,4.1,2.9c1.2,1.4,2.2,3.1,2.7,5.6
		c0.1,0.3,0.4,0.6,0.7,0.5c0.3-0.1,0.6-0.4,0.5-0.7c-0.5-2.7-1.6-4.7-3-6.2c-2.1-2.3-4.7-3.4-6.9-4c-2.1-0.6-3.7-0.6-3.8-0.6
		c-0.3,0-0.6,0.3-0.6,0.6C569.6,21.6,569.9,21.9,570.3,21.9L570.3,21.9z"/>
	<path class="st2" d="M682,290.2L682,290.2c0.1,0,3,0,5.9,1.3c1.5,0.7,3,1.6,4.3,3c1.3,1.4,2.3,3.3,2.8,5.8c0.1,0.3,0.4,0.6,0.7,0.5
		c0.3-0.1,0.6-0.4,0.5-0.7c-0.5-2.8-1.7-4.9-3.1-6.5c-2.2-2.4-4.9-3.5-7.1-4.1c-2.2-0.6-3.9-0.6-3.9-0.6c-0.3,0-0.6,0.3-0.6,0.6
		C681.4,290,681.7,290.2,682,290.2L682,290.2z"/>
	<path class="st2" d="M32.6,395.8L32.6,395.8c0.3,0,6.2,0.1,12.5,2.8c3.1,1.4,6.3,3.4,9,6.4c2.7,3,4.8,7,5.9,12.3
		c0.1,0.3,0.4,0.6,0.7,0.5c0.3-0.1,0.6-0.4,0.5-0.7c-1.1-5.6-3.4-9.9-6.3-13c-4.3-4.8-9.9-7.1-14.4-8.3c-4.5-1.2-7.9-1.2-7.9-1.2
		c-0.3,0-0.6,0.3-0.6,0.6C32,395.5,32.3,395.8,32.6,395.8L32.6,395.8z"/>
	<rect x="293.9" y="128.6" class="st2" width="116.8" height="166.6"/>
	<polygon class="st4" points="410.8,295.2 410.8,294.6 294.6,294.6 294.6,129.2 410.1,129.2 410.1,295.2 410.8,295.2 410.8,294.6 
		410.8,295.2 411.4,295.2 411.4,128 293.3,128 293.3,295.8 411.4,295.8 411.4,295.2 	"/>
	<rect x="483.5" y="174" class="st2" width="79.8" height="117.9"/>
	<polygon class="st16" points="563.3,291.9 563.3,291.2 484.1,291.2 484.1,174.6 562.7,174.6 562.7,291.9 563.3,291.9 563.3,291.2 
		563.3,291.9 563.9,291.9 563.9,173.4 482.9,173.4 482.9,292.5 563.9,292.5 563.9,291.9 	"/>
	<path class="st9" d="M471.4,454.7c0,0-17.9,88.8-13.8,96.2c5.3,9.5,35.3,41.3,49,33.3c0,0-5.6,4.4-7.9,11.7
		c0,0-20.8-10.6-38.4-30.5c-1.8-2-6.9-10.3-7.1-13C452.1,529.8,465.1,472.2,471.4,454.7"/>
	<path class="st1" d="M495,594.3c-0.1,0.2-0.1,0.3-0.1,0.5l1.1,0.1c-0.2-0.1-0.3-0.2-0.5-0.3C495.4,594.5,495.2,594.4,495,594.3"/>
	<path class="st17" d="M495.5,594.5c0.2,0.1,0.3,0.2,0.5,0.3l0.3,0C496.1,594.8,495.8,594.6,495.5,594.5 M501.9,591
		c-0.5,0.7-1,1.4-1.5,2.2l-1.1,1.9l116.9,6c0.5-0.4,0.8-0.6,0.9-0.7c0,0-48.9-4.6-60.9-4.7c0.2-0.5,0.3-0.8,0.3-0.8
		c-8.3-0.7-14-0.7-14.3-0.7c0,0,0,0,0,0c-1.4,0-2.8,0-4.2,0C519.2,594.2,503.7,591.3,501.9,591"/>
	<path class="st1" d="M589.8,619.3l-2.1,2.4c1.2-0.6,2.3-1.4,3.3-2.3L589.8,619.3 M573.4,618.4l-2,2.2c1-0.1,2-0.2,3-0.4
		c0.1,0,0.3,0,0.5,0c1.9,0,5.4,1.4,7,1.9c0.8,0.2,1.6,0.4,2.3,0.4c0.5,0,0.9,0,1.4-0.1l2.8-3.1L573.4,618.4 M558.8,617.6l-2.2,2.4
		c2.7,0.5,5.7,0.8,8.9,0.8c1.4,0,2.9-0.1,4.4-0.2l2.1-2.4L558.8,617.6 M547.4,617c2.3,1.2,5,2.1,8,2.8l2-2.3L547.4,617 M595.2,613.2
		l-4.6,5.1l1.3,0.1c1.7-1.8,3.1-3.8,4.2-5.1L595.2,613.2 M578.9,612.3l-4.6,5.1l15,0.8l4.6-5.1L578.9,612.3 M564.3,611.6l-4.6,5.1
		l13.3,0.7l4.6-5.1L564.3,611.6 M549,610.7l-4.3,4.8c0.2,0.1,0.4,0.2,0.6,0.4l13,0.7l4.6-5.1L549,610.7 M539.1,610.2
		c1.2,1.7,2.8,3.3,4.8,4.7l3.8-4.2L539.1,610.2 M600.4,607.5l-4.3,4.8l1,0.1c0.2-0.2,0.4-0.3,0.6-0.3c2.3,0,5.9-1.9,9.4-4.2
		L600.4,607.5 M584,606.6l-4.3,4.8l15,0.8l4.3-4.8L584,606.6 M569.4,605.8l-4.3,4.8l13.3,0.7l4.3-4.8L569.4,605.8 M554.2,605
		l-4.3,4.8l13.9,0.7l4.3-4.8L554.2,605 M538.6,604.2l-3.7,4.1c1,0.3,2,0.5,3.3,0.6l0,0c0.1,0.1,0.1,0.2,0.2,0.3l10.2,0.5l4.3-4.8
		L538.6,604.2 M524,603.4L524,603.4c1.4,0.3,2.8,0.8,4.5,1.7c2.4,1.2,4,2.1,5.4,2.8l3.3-3.7L524,603.4 M509,602.6L509,602.6
		c3.8,0.4,6.7,0.5,8.9,0.5L509,602.6 M574.7,599.9l-4.4,4.9l13.3,0.7l4.4-4.9l1.3,0.1l-4.4,4.9l15,0.8l4.4-4.9l1.3,0.1l-4.4,4.9
		l7.2,0.4c2.5-1.7,4.9-3.5,6.5-4.8L574.7,599.9 M559.4,599.2l-4.4,4.8l13.9,0.7l4.4-4.9L559.4,599.2 M543.8,598.3l-4.3,4.8l14.3,0.8
		l4.4-4.8L543.8,598.3 M529.2,597.6l-4.3,4.8l13.3,0.7l4.3-4.8L529.2,597.6 M514.8,596.9l-4.8,4.8l13.5,0.7l4.3-4.8L514.8,596.9
		 M500,596.1l-2.7,2.5c1.5,1.1,3.5,2,5.4,2.6l5.9,0.3l4.8-4.8L500,596.1 M495,595.8c0.2,0.7,0.7,1.5,1.5,2.1l2.1-1.9L495,595.8"/>
	<path class="st18" d="M494.9,594.8c0,0.4,0,0.7,0.1,1l3.6,0.2l0.1,0l1.5,0.1l-0.1,0l13.3,0.7l0,0l1.4,0.1l0,0l13.1,0.7l0,0l1.3,0.1
		l0,0l13.3,0.7l0,0l1.3,0.1l0,0l14.3,0.7l0,0l1.3,0.1l0,0l13.9,0.7l0,0l1.3,0.1l0,0L615,602c0.5-0.4,0.9-0.7,1.3-1l-116.9-6
		l-0.5,0.8l0,0l0,0c0,0,0,0,0,0c0,0,0,0.1,0,0.1c0,0-0.1,0-0.2-0.1c-0.6,0-0.6-0.2-2.2-1l-0.3,0L494.9,594.8"/>
	<path class="st19" d="M498.6,596L498.6,596l-2.1,2c0.3,0.2,0.5,0.4,0.8,0.7l2.7-2.5l0.1,0L498.6,596"/>
	<path class="st19" d="M588.4,619.2l-2.8,3.1c0.7-0.1,1.4-0.4,2-0.7l2.1-2.4L588.4,619.2 M593.9,613.1l-4.6,5.1l1.3,0.1l4.6-5.1
		L593.9,613.1 M599,607.4l-4.3,4.8l1.3,0.1l4.3-4.8L599,607.4 M604.3,601.5l-4.4,4.9l1.3,0.1l4.4-4.9L604.3,601.5"/>
	<path class="st19" d="M572.1,618.3l-2.1,2.4c0.5,0,1-0.1,1.5-0.1l2-2.2L572.1,618.3 M577.5,612.3l-4.6,5.1l1.3,0.1l4.6-5.1
		L577.5,612.3 M582.7,606.5l-4.3,4.8l1.3,0.1l4.3-4.8L582.7,606.5 M588,600.6l-4.4,4.9l1.3,0.1l4.4-4.9L588,600.6"/>
	<path class="st19" d="M557.5,617.6l-2,2.3c0.4,0.1,0.8,0.2,1.2,0.2l2.2-2.4L557.5,617.6 M562.9,611.5l-4.6,5.1l1.3,0.1l4.6-5.1
		L562.9,611.5 M568.1,605.7l-4.3,4.8l1.3,0.1l4.3-4.8L568.1,605.7 M573.4,599.9L573.4,599.9l-4.4,4.9l1.3,0.1l4.4-4.9l0,0
		L573.4,599.9"/>
	<path class="st19" d="M547.7,610.7l-3.8,4.2c0.3,0.2,0.6,0.4,0.9,0.6l4.3-4.8L547.7,610.7 M552.8,604.9l-4.3,4.8l1.3,0.1l4.3-4.8
		L552.8,604.9 M558.1,599.1L558.1,599.1l-4.4,4.9l1.3,0.1l4.4-4.8l0,0L558.1,599.1"/>
	<path class="st19" d="M537.2,604.1l-3.3,3.7c0.4,0.2,0.7,0.3,1,0.4l3.7-4.1L537.2,604.1 M542.5,598.3L542.5,598.3l-4.4,4.8l1.3,0.1
		l4.3-4.8l0,0L542.5,598.3"/>
	<path class="st19" d="M523.8,603.4c0.1,0,0.1,0,0.2,0l0,0L523.8,603.4 M527.9,597.5L527.9,597.5l-4.3,4.8l1.3,0.1l4.3-4.8l0,0
		L527.9,597.5"/>
	<path class="st19" d="M507.7,602.5c0.2,0,0.4,0.1,0.6,0.1c0.2,0,0.5,0,0.7,0.1l0.1-0.1L507.7,602.5 M513.4,596.7L513.4,596.7
		l-4.8,4.8l1.4,0.1l4.8-4.8l0,0L513.4,596.7"/>
	<path class="st19" d="M545.3,615.9c0.7,0.4,1.4,0.8,2.1,1.2l10.1,0.5l1.3,0.1l13.3,0.7l1.3,0.1l15,0.8l1.3,0.1l1.2,0.1
		c0.3-0.3,0.7-0.7,1-1l-1.3-0.1l-1.3-0.1l-15-0.8l-1.3-0.1l-13.3-0.7l-1.3-0.1L545.3,615.9"/>
	<path class="st19" d="M538.4,609.1c0.2,0.4,0.4,0.7,0.7,1.1l8.6,0.5l1.3,0.1l13.9,0.7l1.3,0.1l13.3,0.7l1.3,0.1l15,0.8l1.3,0.1
		l0.9,0c0.4-0.4,0.7-0.8,1-1l-1-0.1l-1.3-0.1l-15-0.8l-1.3-0.1l-13.3-0.7l-1.3-0.1l-13.9-0.7l-1.3-0.1L538.4,609.1"/>
	<path class="st19" d="M502.7,601.2c1.9,0.7,3.7,1.1,5,1.3l1.3,0.1l8.9,0.5c2.4,0,4.1,0,5.9,0.3l0.2,0l13.3,0.7l1.3,0.1l14.3,0.8
		l1.3,0.1l13.9,0.7l1.3,0.1l13.3,0.7l1.3,0.1l15,0.8l1.3,0.1l6.6,0.4c0.5-0.3,1-0.6,1.4-1l-7.2-0.4l-1.3-0.1l-15-0.8l-1.3-0.1
		l-13.3-0.7l-1.3-0.1l-13.9-0.7l-1.3-0.1l-14.3-0.8l-1.3-0.1l-13.3-0.7l-1.3-0.1l-13.5-0.7l-1.4-0.1L502.7,601.2"/>
	<path class="st20" d="M498.8,595.8L498.8,595.8L498.8,595.8L498.8,595.8 M501.8,590.9l-1.3,2.2c0.5-0.8,1-1.5,1.5-2.2
		C501.8,590.9,501.8,590.9,501.8,590.9"/>
	<path class="st21" d="M498.5,595.8c0.2,0.1,0.2,0.1,0.2,0.1c0,0,0-0.1,0-0.1C498.7,595.8,498.6,595.8,498.5,595.8"/>
	<path class="st7" d="M501.1,592.2c0,0,7.9,5.8,16.1,6.4c8.2,0.6,17,1.3,17,1.3s7.1,11.8,14.9,9.2l-7.2-13.5l-11.1-4.5l13.2,3.6
		l8.8,9.5l6.1-6.8l-7.4-8.7l-6.6-2l11.8,3l5.1,5.1c0,0,6.1-1.9,7.8-2.1l7.4-0.9c0,0-11.5-11.4-12.6-11.9c-2-0.9-24.4,0.5-30.8-1.5
		c-6.4-1.9-9.2-1.1-9.2-1.1S508,578.1,501.1,592.2z"/>
	<path class="st7" d="M598.9,589c0,0-21.1,4.3-28.6,3.8s-14.5,7.1-25.7,22c0,0,3.2,3.4,8.6,0l-2.5,3.5c0,0,4.3,3.4,9.9-1.8
		c5.6-5.1,10.2-10.5,10.2-10.5l12.6-5.4c0,0-5.8,1.4-9.4,6.1c-1.1,1.4-7,14.7-7,14.7s6.4,1.5,7.8-1.5c3-6.2,7.9-11.5,7.9-11.5
		L595,604c0,0-5.1,1.7-8.2,7.7c-3.1,6-5.9,9.9-5.9,9.9s5.6,2.5,9.4-1.8c3.9-4.3,7.3-8,7.3-8s22.7-2.9,25.5-9
		C623.1,603,612.8,589.9,598.9,589z"/>
	<path d="M594.8,603.4c0,0-1.2,0.3-2.7,1.2c-1.5,0.9-3.3,2.3-4.6,4.7c-1.3,2.2-3,5.1-4.4,7.5c-0.7,1.2-1.3,2.2-1.8,3
		c-0.2,0.4-0.4,0.7-0.5,0.9c-0.1,0.2-0.2,0.3-0.2,0.3c-0.2,0.3-0.1,0.7,0.2,0.9c0.3,0.2,0.7,0.1,0.9-0.2c0,0,4.4-7.2,6.9-11.7
		c1.2-2.1,2.8-3.4,4.2-4.2c0.7-0.4,1.3-0.7,1.7-0.8c0.2-0.1,0.4-0.1,0.5-0.2c0.1,0,0.1,0,0.1,0l0,0l0,0l0-0.2l0,0.2l0,0l0-0.2l0,0.2
		c0.4-0.1,0.6-0.5,0.5-0.8C595.5,603.5,595.2,603.3,594.8,603.4L594.8,603.4z"/>
	<path d="M568,621.2l6.7-14.2l-0.6-0.3l0.6,0.3l-0.1-0.1l0.1,0.1l0,0l-0.1-0.1l0.1,0.1c0,0,0.7-1.2,2.3-2.5c1.6-1.3,4.2-2.8,7.9-3.6
		c0.4-0.1,0.6-0.4,0.5-0.8c-0.1-0.4-0.4-0.6-0.8-0.5c-4,0.8-6.7,2.4-8.5,3.9c-1.8,1.4-2.5,2.7-2.6,2.8l0,0l-6.7,14.2
		c-0.2,0.3,0,0.7,0.3,0.9C567.4,621.6,567.8,621.5,568,621.2L568,621.2z"/>
	<path d="M551.6,618.1l13.4-18.4l-0.5-0.4l0.3,0.6l0-0.1l0,0.1l0,0l0-0.1l0,0.1c0,0,2.8-1.2,8.4-2c0.4-0.1,0.6-0.4,0.6-0.8
		c-0.1-0.4-0.4-0.6-0.8-0.6c-5.8,0.9-8.7,2.1-8.7,2.1l-0.2,0.1l-13.5,18.5c-0.2,0.3-0.2,0.7,0.1,0.9
		C550.9,618.5,551.4,618.4,551.6,618.1L551.6,618.1z"/>
	<path d="M545.1,615.2c0,0,0.2-0.3,0.6-0.7c1.3-1.6,4.7-5.6,7.9-9.4c1.6-1.9,3.2-3.7,4.5-5.1c0.6-0.7,1.2-1.3,1.7-1.8
		c0.2-0.2,0.4-0.4,0.6-0.6c0.2-0.2,0.3-0.3,0.4-0.3c1-0.7,1.8-1.5,3.5-2.2c1.7-0.7,4.3-1.3,8.7-1.5l0,0l0,0c0,0,14.3-1.6,26-3.9
		c0.4-0.1,0.6-0.4,0.5-0.8c-0.1-0.4-0.4-0.6-0.8-0.5c-5.8,1.1-12.3,2.1-17.3,2.8c-2.5,0.3-4.7,0.6-6.2,0.8c-0.8,0.1-1.4,0.2-1.8,0.2
		c-0.4,0-0.6,0.1-0.6,0.1l0.1,0.7l0-0.7c-4.5,0.2-7.3,0.9-9.1,1.6c-1.9,0.8-2.9,1.7-3.8,2.4c-0.2,0.1-0.3,0.3-0.6,0.5
		c-0.4,0.4-0.9,1-1.6,1.6c-2.2,2.4-5.6,6.4-8.5,9.8c-2.9,3.4-5.2,6.2-5.2,6.2c-0.2,0.3-0.2,0.7,0.1,0.9
		C544.5,615.5,544.9,615.5,545.1,615.2L545.1,615.2z"/>
	<path d="M549.6,608.8l-7.3-13.7l-11.3-4.6c-0.3-0.1-0.7,0-0.9,0.4c-0.1,0.3,0,0.7,0.4,0.9l10.9,4.4l7,13.3c0.2,0.3,0.6,0.4,0.9,0.3
		C549.7,609.5,549.8,609.1,549.6,608.8L549.6,608.8z"/>
	<path d="M559.5,596.9l-7.5-8.9l-13.3-4c-0.4-0.1-0.7,0.1-0.8,0.4c-0.1,0.4,0.1,0.7,0.4,0.8l12.9,3.9l7.3,8.6
		c0.2,0.3,0.7,0.3,0.9,0.1C559.7,597.6,559.8,597.2,559.5,596.9L559.5,596.9z"/>
	<path d="M569.3,592.4l-8.8-9.5l-10-1.7c-0.4-0.1-0.7,0.2-0.8,0.5c-0.1,0.4,0.2,0.7,0.5,0.8l9.5,1.6l8.5,9.2c0.2,0.3,0.7,0.3,0.9,0
		C569.6,593.1,569.6,592.7,569.3,592.4L569.3,592.4z"/>
	<path d="M502.5,589.4c0,0,1.6,6.6,29.5,7.9c0,0,4.4-0.3,5.8,3.7c1.1,3.2,5.3,7.6,9.9,8.3c0,0-6.2,2.3-13.6-9.5c0,0-24,1.5-33.4-7.2
		L502.5,589.4z"/>
	<path d="M546.1,615.8c0,0,4.2,0.6,10.4-8.3c6.2-8.8,7.6-8.8,7.6-8.8l-11.8,16.1C552.3,614.8,551.2,617.1,546.1,615.8z"/>
	<path d="M560.7,583.2c0,0,8.8,10,14.1,8.9l-6,0.8l-7.9-8.1L560.7,583.2z"/>
	<rect x="307.1" y="147.2" class="st3" width="90.9" height="65.1"/>
	<rect x="504.2" y="222.8" class="st3" width="49.8" height="59.9"/>
	<line class="st3" x1="467.6" y1="118.3" x2="518.5" y2="118.3"/>
	<path class="st3" d="M467.6,121.4h50.9c1.7,0,3.1-1.4,3.1-3.1c0-1.7-1.4-3.1-3.1-3.1h-50.9c-1.7,0-3.1,1.4-3.1,3.1
		C464.5,120,465.9,121.4,467.6,121.4"/>
	<path class="st4" d="M370.5,255.9H395c0.3,0,0.6-0.3,0.6-0.6c0-0.3-0.3-0.6-0.6-0.6h-24.6c-0.3,0-0.6,0.3-0.6,0.6
		C369.8,255.6,370.1,255.9,370.5,255.9"/>
	<path class="st4" d="M318.6,255.9h36.9c0.3,0,0.6-0.3,0.6-0.6c0-0.3-0.3-0.6-0.6-0.6h-36.9c-0.3,0-0.6,0.3-0.6,0.6
		C317.9,255.6,318.2,255.9,318.6,255.9"/>
	<path class="st4" d="M379.9,241.5H395c0.3,0,0.6-0.3,0.6-0.6c0-0.3-0.3-0.6-0.6-0.6h-15.1c-0.3,0-0.6,0.3-0.6,0.6
		C379.3,241.2,379.6,241.5,379.9,241.5"/>
	<path class="st4" d="M318.6,241.5h49.7c0.3,0,0.6-0.3,0.6-0.6c0-0.3-0.3-0.6-0.6-0.6h-49.7c-0.3,0-0.6,0.3-0.6,0.6
		C317.9,241.2,318.2,241.5,318.6,241.5"/>
	<path class="st4" d="M351,270.1h44c0.3,0,0.6-0.3,0.6-0.6c0-0.3-0.3-0.6-0.6-0.6h-44c-0.3,0-0.6,0.3-0.6,0.6
		C350.4,269.8,350.7,270.1,351,270.1"/>
	<path class="st4" d="M318.6,270.1h17.5c0.3,0,0.6-0.3,0.6-0.6c0-0.3-0.3-0.6-0.6-0.6h-17.5c-0.3,0-0.6,0.3-0.6,0.6
		C317.9,269.8,318.2,270.1,318.6,270.1"/>
	<path class="st4" d="M354.9,227.1h40.7c0.3,0,0.6-0.3,0.6-0.6c0-0.3-0.3-0.6-0.6-0.6h-40.7c-0.3,0-0.6,0.3-0.6,0.6
		C354.3,226.8,354.6,227.1,354.9,227.1"/>
	<path class="st4" d="M318.6,227.1h24.9c0.3,0,0.6-0.3,0.6-0.6c0-0.3-0.3-0.6-0.6-0.6h-24.9c-0.3,0-0.6,0.3-0.6,0.6
		C317.9,226.8,318.2,227.1,318.6,227.1"/>
	<path class="st4" d="M307.9,269.4v-42.7c0-0.3-0.3-0.6-0.6-0.6c-0.3,0-0.6,0.3-0.6,0.6v42.7c0,0.3,0.3,0.6,0.6,0.6
		C307.6,270.1,307.9,269.8,307.9,269.4"/>
	<path class="st4" d="M528.8,204.4h12.7c0.2,0,0.3-0.1,0.3-0.3c0-0.2-0.1-0.3-0.3-0.3h-12.7c-0.2,0-0.3,0.1-0.3,0.3
		C528.5,204.2,528.7,204.4,528.8,204.4"/>
	<path class="st4" d="M502.1,204.4h19c0.2,0,0.3-0.1,0.3-0.3c0-0.2-0.1-0.3-0.3-0.3h-19c-0.2,0-0.3,0.1-0.3,0.3
		C501.7,204.2,501.9,204.4,502.1,204.4"/>
	<path class="st4" d="M533.7,196.9h7.8c0.2,0,0.3-0.1,0.3-0.3c0-0.2-0.1-0.3-0.3-0.3h-7.8c-0.2,0-0.3,0.1-0.3,0.3
		C533.4,196.8,533.6,196.9,533.7,196.9"/>
	<path class="st4" d="M502.1,196.9h25.7c0.2,0,0.3-0.1,0.3-0.3c0-0.2-0.1-0.3-0.3-0.3h-25.7c-0.2,0-0.3,0.1-0.3,0.3
		C501.7,196.8,501.9,196.9,502.1,196.9"/>
	<path class="st4" d="M518.8,211.7h22.7c0.2,0,0.3-0.1,0.3-0.3c0-0.2-0.1-0.3-0.3-0.3h-22.7c-0.2,0-0.3,0.1-0.3,0.3
		C518.5,211.6,518.6,211.7,518.8,211.7"/>
	<path class="st4" d="M502.1,211.7h9c0.2,0,0.3-0.1,0.3-0.3c0-0.2-0.1-0.3-0.3-0.3h-9c-0.2,0-0.3,0.1-0.3,0.3
		C501.7,211.6,501.9,211.7,502.1,211.7"/>
	<path class="st4" d="M520.8,189.5h21c0.2,0,0.3-0.1,0.3-0.3c0-0.2-0.1-0.3-0.3-0.3h-21c-0.2,0-0.3,0.1-0.3,0.3
		C520.5,189.4,520.6,189.5,520.8,189.5"/>
	<path class="st4" d="M502.1,189.5h12.9c0.2,0,0.3-0.1,0.3-0.3c0-0.2-0.1-0.3-0.3-0.3h-12.9c-0.2,0-0.3,0.1-0.3,0.3
		C501.7,189.4,501.9,189.5,502.1,189.5"/>
	<path class="st4" d="M496.6,211.4v-22c0-0.2-0.1-0.3-0.3-0.3c-0.2,0-0.3,0.1-0.3,0.3v22c0,0.2,0.1,0.3,0.3,0.3
		C496.4,211.7,496.6,211.6,496.6,211.4"/>
	<path class="st4" d="M362.3,167.3c0,0,0.1-0.1,0.1-0.1c0.2-0.2,0-0.5-0.2-0.5h-4.7c-0.1,0-0.2,0-0.2,0.1
		c-0.1,0.1-17.2,25.7-17.2,25.7l0,0c-0.1,0.1,0,0.4,0.2,0.4h5c0.1,0,0.1,0,0.2-0.1c1.9-2.5,5.4-8,8.8-13.4
		C357,174.8,362.1,167.4,362.3,167.3z"/>
	<path class="st4" d="M323.3,179.8l13.1-10.9c0.2-0.1,0.4-0.1,0.6,0l2.1,2.4c0.2,0.2,0.1,0.5-0.1,0.6l-9.6,7.7l9.6,7.7
		c0.2,0.2,0.2,0.4,0.1,0.6l-2.2,2.5c-0.2,0.2-0.4,0.2-0.6,0L323.3,179.8z"/>
	<path class="st4" d="M380,179.7L367,190.6c-0.2,0.1-0.4,0.1-0.6,0l-2.1-2.4c-0.2-0.2-0.1-0.5,0.1-0.6l9.6-7.7l-9.6-7.7
		c-0.2-0.2-0.2-0.4-0.1-0.6l2.2-2.5c0.2-0.2,0.4-0.2,0.6,0L380,179.7z"/>
	<path d="M510.6,482.5C510.6,482.5,510.6,482.5,510.6,482.5c0,1.2-0.9,21.3-11.6,60.2c-0.1,0.2,0,0.4,0.1,0.5l36.5,34.3l0.4-0.4
		l0.1-0.5c0,0-1.2-0.1-3.3-0.1c-3.8,0-10.5,0.4-17.2,3c-3.3,1.3-6.7,3-9.7,5.6c-3,2.5-5.6,5.8-7.5,10c-0.1,0.3,0,0.6,0.3,0.7
		c0.3,0.1,0.6,0,0.7-0.3c1.8-4,4.4-7.2,7.3-9.6c4.3-3.6,9.5-5.7,14.2-6.9c4.8-1.2,9.2-1.4,12-1.4c1,0,1.8,0,2.3,0.1
		c0.3,0,0.5,0,0.6,0c0.1,0,0.1,0,0.2,0s0.1,0,0.1,0c0.2,0,0.4-0.1,0.5-0.3c0.1-0.2,0-0.4-0.1-0.6l-36.5-34.3l-0.4,0.4l0.5,0.1
		c11.1-40.2,11.6-60.4,11.6-60.4c0-0.3-0.2-0.5-0.5-0.5C510.8,482,510.6,482.2,510.6,482.5L510.6,482.5z"/>
	<path d="M622.4,478.6c0,0-1,10.5-1,25.3c0,13.9,0.9,31.5,4.5,47.9l0.5-0.1l-0.4-0.3c-0.6,1-1.7,2.3-3.1,3.8
		c-4.8,5.4-13.5,13.7-21,20.5c-3.7,3.4-7.2,6.5-9.7,8.7c-1.3,1.1-2.3,2-3,2.6c-0.4,0.3-0.6,0.6-0.8,0.7s-0.3,0.2-0.3,0.2
		c-0.2,0.2-0.2,0.4-0.1,0.6c0.1,0.2,0.3,0.3,0.5,0.3l0,0c0.1,0,1.5-0.2,3.7-0.2c3.8,0,10.1,0.5,16.7,3.4c6.5,2.9,13.3,8.1,18.1,17.5
		c0.1,0.3,0.4,0.4,0.7,0.2c0.3-0.1,0.4-0.4,0.2-0.7c-4.9-9.6-11.9-15-18.7-18c-6.7-3-13.2-3.5-17.1-3.5c-2.4,0-3.8,0.2-3.8,0.2
		l0.1,0.5l0.3,0.4c0,0,8.2-7.2,17-15.4c4.4-4.1,9-8.4,12.8-12.3c1.9-1.9,3.6-3.7,5-5.3c1.4-1.6,2.5-2.9,3.2-4
		c0.1-0.1,0.1-0.3,0.1-0.4c-3.6-16.2-4.5-33.9-4.5-47.7c0-7.4,0.3-13.7,0.5-18.1c0.1-2.2,0.3-4,0.4-5.2c0-0.6,0.1-1.1,0.1-1.4
		c0-0.2,0-0.3,0-0.4c0-0.1,0-0.1,0-0.1c0-0.3-0.2-0.5-0.5-0.6C622.7,478.1,622.5,478.3,622.4,478.6L622.4,478.6z"/>
</g>
</svg>
